<?xml version="1.0" encoding="UTF-8" standalone="no"?>
<svg
   xmlns:dc="http://purl.org/dc/elements/1.1/"
   xmlns:cc="http://creativecommons.org/ns#"
   xmlns:rdf="http://www.w3.org/1999/02/22-rdf-syntax-ns#"
   xmlns:svg="http://www.w3.org/2000/svg"
   xmlns="http://www.w3.org/2000/svg"
   xmlns:sodipodi="http://sodipodi.sourceforge.net/DTD/sodipodi-0.dtd"
   xmlns:inkscape="http://www.inkscape.org/namespaces/inkscape"
   width="111.95683mm"
   height="107.5714mm"
   viewBox="0 0 111.95683 107.5714"
   version="1.1"
   id="svg8"
   inkscape:version="1.0.1 (1.0.1+r73)"
   sodipodi:docname="complemento.svg">
  <defs
     id="defs2" />
  <sodipodi:namedview
     id="base"
     pagecolor="#ffffff"
     bordercolor="#666666"
     borderopacity="1.0"
     inkscape:pageopacity="0.0"
     inkscape:pageshadow="2"
     inkscape:zoom="0.35"
     inkscape:cx="229.48778"
     inkscape:cy="182.86198"
     inkscape:document-units="mm"
     inkscape:current-layer="layer1"
     inkscape:document-rotation="0"
     showgrid="false"
     inkscape:window-width="1366"
     inkscape:window-height="704"
     inkscape:window-x="0"
     inkscape:window-y="34"
     inkscape:window-maximized="1" />
  <metadata
     id="metadata5">
    <rdf:RDF>
      <cc:Work
         rdf:about="">
        <dc:format>image/svg+xml</dc:format>
        <dc:type
           rdf:resource="http://purl.org/dc/dcmitype/StillImage" />
        <dc:title />
      </cc:Work>
    </rdf:RDF>
  </metadata>
  <g
     inkscape:label="Capa 1"
     inkscape:groupmode="layer"
     id="layer1"
     transform="translate(-54.045894,-42.951228)">
    <path
       style="fill:#33a201;fill-opacity:1;stroke:#000000;stroke-width:0.7;stroke-linecap:butt;stroke-linejoin:miter;stroke-miterlimit:4;stroke-dasharray:none;stroke-opacity:1"
       d="m 54.802377,125.10232 -0.394555,-26.261759 4.134928,3.684719 3.116259,0.80449 2.967583,-0.54334 3.689244,-2.63646 3.179691,-5.351572 -0.370396,-5.802614 -3.243394,-4.743712 -4.298316,-3.346189 -3.335147,-0.426005 -3.654143,1.327626 -1.987175,2.752523 0.625654,-25.56914 22.788531,0.602716 0.483476,-10.388338 2.056413,-2.456761 1.055404,-1.76901 3.658456,-1.272998 c 0,0 1.17637,-0.405268 2.428206,-0.405268 1.251825,0 3.200291,0 3.200291,0 l 5.234858,1.27395 3.020029,1.677415 2.881216,2.584695 -0.0839,3.196661 -0.51538,6.702961 11.94193,-0.48411 4.13976,-4.957167 20.00858,19.235815 -1.41816,1.789194 -2.5302,-0.10874 -1.80344,-0.393034 -3.01101,3.561128 -0.85399,5.272314 0.31625,3.025567 4.22249,5.810005 5.04808,1.365725 3.90642,0.913354 5.66716,-2.652669 2.46718,-3.953774 1.25247,-3.21088 14.78346,15.261323 -1.45981,2.859369 -12.87109,14.40156 4.7196,4.07686 4.37765,5.33956 -0.58673,3.85473 -1.77471,3.35956 -2.45348,4.30733 -4.40974,3.42962 -1.70377,1.12971 h -2.32326 l -1.63108,-0.0666 -11.59083,-9.26427 -16.713,17.37544 -15.22872,-16.30856 -0.44993,0.11181 -10.012684,7.57111 -4.193085,-1.11944 -8.048196,-4.36247 -1.799979,-2.90608 -0.444169,-1.78728 -0.733658,-2.18186 3.430707,-4.61866 z"
       id="path152-3" />
    <path
       style="fill:#0000dd;fill-opacity:1;stroke:#1a1a1a;stroke-width:0.7;stroke-linecap:butt;stroke-linejoin:miter;stroke-miterlimit:4;stroke-dasharray:none;stroke-opacity:1"
       d="m 117.52189,53.295631 20.00858,19.235814 -1.41816,1.789195 -2.5302,-0.10874 -1.80344,-0.393035 -3.01101,3.561129 -0.85399,5.272314 0.31625,3.025567 4.22249,5.810007 5.04808,1.365724 3.90642,0.913347 5.66716,-2.65267 2.46718,-3.953767 1.25247,-3.21088 14.78346,15.261324 -1.45981,2.85937 -12.87109,14.40156 4.7196,4.07684 4.37765,5.33958 -0.58673,3.85472 -1.77471,3.35957 -2.45348,4.30733 -4.40974,3.42962 -1.70377,1.1297 h -2.32326 l -1.63108,-0.0666 -11.59083,-9.26426 -16.713,17.37544 -15.22872,-16.30856 -0.44993,0.11181 -10.012687,7.57109 -4.193084,-1.11942 -8.048189,-4.36247 -1.799989,-2.90609 -1.177822,-3.96913 3.430703,-4.61866 c 1.872323,-2.7618 4.042312,-5.28345 3.825956,-5.2965 -0.614058,0.19598 0.52353,-0.3164 0.188768,-0.86739 -1.817318,-2.99119 -9.775824,-10.54485 -15.037682,-18.07529 -0.437712,-0.626425 0.401649,-0.468623 0.85086,-0.867731 0.103398,-0.09187 0.295446,-0.270875 0.51143,-0.488888 0.712537,-0.719234 1.341203,-1.215684 2.465434,-2.287885 C 75.546229,93.60627 80.073225,89.255663 85.408962,84.482304 98.496174,72.774463 113.92455,57.603283 117.52189,53.295631 Z"
       id="path152"
       sodipodi:nodetypes="cccccccccccccccccccccccccccccccccccccssssssc" />
    <path
       style="fill:none;stroke:#000000;stroke-width:0.304493px;stroke-linecap:butt;stroke-linejoin:miter;stroke-opacity:1"
       d="M 79.677212,124.41239 84.010273,118.13682 68.315872,100.14996 113.38213,58.252798"
       id="path154" />
  </g>
</svg>
