<?xml version="1.0" encoding="UTF-8" standalone="no"?>
<svg
   xmlns:dc="http://purl.org/dc/elements/1.1/"
   xmlns:cc="http://creativecommons.org/ns#"
   xmlns:rdf="http://www.w3.org/1999/02/22-rdf-syntax-ns#"
   xmlns:svg="http://www.w3.org/2000/svg"
   xmlns="http://www.w3.org/2000/svg"
   xmlns:sodipodi="http://sodipodi.sourceforge.net/DTD/sodipodi-0.dtd"
   xmlns:inkscape="http://www.inkscape.org/namespaces/inkscape"
   width="211.1712mm"
   height="57.42778mm"
   viewBox="0 0 211.17121 57.42778"
   version="1.1"
   id="svg8"
   inkscape:version="1.0.1 (1.0.1+r73)"
   sodipodi:docname="footer.svg">
  <defs
     id="defs2" />
  <sodipodi:namedview
     id="base"
     pagecolor="#ffffff"
     bordercolor="#666666"
     borderopacity="1.0"
     inkscape:pageopacity="0.0"
     inkscape:pageshadow="2"
     inkscape:zoom="0.7"
     inkscape:cx="478.27572"
     inkscape:cy="143.83112"
     inkscape:document-units="mm"
     inkscape:current-layer="g112"
     inkscape:document-rotation="0"
     showgrid="false"
     showguides="true"
     inkscape:guide-bbox="true"
     inkscape:window-width="1366"
     inkscape:window-height="704"
     inkscape:window-x="0"
     inkscape:window-y="34"
     inkscape:window-maximized="1" />
  <metadata
     id="metadata5">
    <rdf:RDF>
      <cc:Work
         rdf:about="">
        <dc:format>image/svg+xml</dc:format>
        <dc:type
           rdf:resource="http://purl.org/dc/dcmitype/StillImage" />
        <dc:title />
      </cc:Work>
    </rdf:RDF>
  </metadata>
  <g
     inkscape:label="Capa 1"
     inkscape:groupmode="layer"
     id="layer1"
     transform="translate(0.31098,-41.983591)">
    <g
       id="g112"
       transform="translate(-222.05303,-12.304297)">
      <path
         style="fill:#c7ac91;stroke-width:0.425282"
         d="m 341.44929,24.725266 c 0.008,-0.73342 0.0995,-0.97965 0.20265,-0.54717 0.10316,0.43249 0.0964,1.03256 -0.0151,1.3335 -0.11146,0.30093 -0.19586,-0.0529 -0.18757,-0.78633 z m -4.52308,-0.037 c 0.0195,-0.51782 0.11595,-0.62314 0.24584,-0.26855 0.11754,0.32087 0.10308,0.70425 -0.0321,0.85195 -0.13521,0.1477 -0.23138,-0.11483 -0.21371,-0.5834 z"
         id="path126"
         sodipodi:nodetypes="ssssssssss" />
      <path
         style="fill:#a9a099;stroke-width:0.425282"
         d="m 310.54746,25.974596 c 0.39164,-0.1118 1.0325,-0.1118 1.42414,0 0.39164,0.11181 0.0712,0.20328 -0.71207,0.20328 -0.78328,0 -1.10371,-0.0915 -0.71207,-0.20328 z"
         id="path124"
         sodipodi:nodetypes="ssss" />
      <g
         id="g168">
        <path
           style="fill:#675d56;stroke-width:0.425282"
           d="m 428.44606,79.869156 c 0,-0.38114 0.18311,-0.69298 0.4069,-0.69298 0.2238,0 0.4069,0.18822 0.4069,0.41826 0,0.23005 -0.1831,0.54189 -0.4069,0.69298 -0.22379,0.1511 -0.4069,-0.0371 -0.4069,-0.41826 z"
           id="path118"
           sodipodi:nodetypes="sssss" />
        <path
           style="fill:#550000;stroke-width:0.425282"
           d="m 227.94724,111.16613 c -1.33089,-0.58438 -3.58805,-1.17729 -1.85186,-1.16955 1.01528,0.005 4.37596,-0.36221 4.00689,-0.10678 -0.46828,0.3241 -1.04177,1.22009 -0.57349,1.42353 0.43176,0.18757 0.41942,0.2425 -0.0557,0.24788 -0.33569,0.004 -1.02233,-0.17398 -1.52586,-0.39508 z m 38.55355,0.0138 c 0,-0.4091 0.57645,-0.6258 1.32242,-0.49713 0.16784,0.0289 0.30517,-0.14111 0.30517,-0.37792 0,-0.23679 0.24297,-0.32869 0.53994,-0.2042 0.29696,0.12449 3.12625,-1.18195 6.28729,-2.90318 3.16105,-1.72124 5.92651,-3.12953 6.14547,-3.12953 0.95789,0 -0.69311,4.00106 -2.52201,6.11184 -0.9655,1.11432 -1.58231,1.44055 -2.69773,1.42682 l -1.44605,-0.0178 1.15495,-0.68373 c 1.82068,-1.07786 0.94812,-1.23171 -1.17285,-0.20681 -2.89854,1.40064 -3.15794,1.06869 -0.38899,-0.49777 1.34276,-0.75962 2.21075,-1.46739 1.92887,-1.57281 -0.28188,-0.10543 -1.70724,0.52571 -3.16746,1.40252 -1.92899,1.15826 -3.1518,1.59418 -4.47199,1.59418 -0.99937,0 -1.81703,-0.20003 -1.81703,-0.4445 z m 11.80003,0.27667 c 0,-0.0923 0.32043,-0.44234 0.71207,-0.77787 0.64537,-0.55289 0.65976,-0.53717 0.15363,0.16783 -0.53156,0.74042 -0.8657,0.97588 -0.8657,0.61004 z m 55.77982,-0.94342 c -0.0123,-0.73342 0.15512,-1.63352 0.37206,-2.00023 0.31088,-0.5255 0.3897,-0.43133 0.37207,0.44449 -0.0123,0.61119 -0.17973,1.5113 -0.37207,2.00024 -0.30024,0.76327 -0.35286,0.70041 -0.37206,-0.4445 z m 1.79349,-1.00011 c 0.49188,-4.14434 0.55567,-4.30612 1.37737,-3.49378 0.39923,0.39468 0.8777,0.56715 1.06326,0.38326 0.18557,-0.18388 0.209,-0.0902 0.0521,0.20823 -0.15692,0.29841 -0.0264,1.09851 0.29011,1.77799 0.31649,0.67948 0.70252,1.68547 0.85785,2.23554 0.26749,0.94726 0.17212,1.00012 -1.80443,1.00012 h -2.08684 z m 45.14144,0.88899 c -1.21382,-1.37755 -3.53053,-6.01863 -3.143,-6.44198 0.1392,-0.15206 3.66189,1.3092 6.9936,3.09451 3.3317,1.78531 5.8627,3.2049 6.10737,3.03971 0.24466,-0.16518 0.44484,-0.0885 0.44484,0.1704 0,0.2589 0.13732,0.44705 0.30517,0.4181 0.81106,-0.1399 1.34513,0.0974 1.11897,0.49713 -0.55135,0.97454 -3.43378,0.4426 -6.02153,-1.11124 -2.7101,-1.62731 -0.0304,0.0748 1.45877,1.35786 0.44759,0.38561 -2.84278,-1.10927 -1.9476,-0.65237 0.89517,0.4569 1.31762,0.83512 0.93877,0.84049 -0.37884,0.005 -1.33708,-0.40807 -2.12941,-0.91876 -0.79232,-0.51068 0.25343,0.78927 -0.0301,0.89292 -0.29698,0.10859 -1.92396,-1.13842 -1.22069,-0.72225 l 1.22069,0.72225 -1.5094,0.0178 c -1.12738,0.0133 -1.782,-0.29157 -2.58649,-1.20457 z m 49.0024,0.84513 c 0.46399,-0.33811 0.46484,-0.4369 0.005,-0.60426 -0.30219,-0.11004 0.1671,-0.2295 1.04289,-0.26547 1.76487,-0.0725 1.53379,0.5207 -0.38209,0.98078 -0.78812,0.18927 -1.02414,0.14991 -0.66603,-0.11105 z m -21.10299,-0.50453 c -1.23087,-0.12624 -2.14639,-0.36343 -2.03449,-0.52709 -3.93573,-2.82993 -6.04202,-5.81031 -5.21989,-10.694174 0.20383,-1.04428 0.39359,-2.12993 0.42168,-2.41256 0.0297,-0.29912 0.36001,-0.636751 1.03869,-0.542921 0.2699,-1.649423 2.42122,1.119731 2.34896,1.254981 -0.20655,0.365079 0.27435,0.888632 0.71869,1.63263 0.29188,0.488714 0.51426,1.400554 0.7045,1.272114 0.21169,-0.14293 0.27712,0.047 0.14536,0.42207 0.15753,0.805 0.97316,1.54065 1.55533,2.27469 1.46866,1.85177 3.31628,3.5751 3.08651,5.50607 -0.0991,0.7374 0.007,1.4089 0.23599,1.49224 0.93193,0.33935 -0.90771,0.53669 -3.00136,0.32195 z M 271.79046,107.624 c 0,-0.24447 0.19391,-0.44449 0.43091,-0.44449 0.237,0 0.31775,0.20002 0.17944,0.44449 -0.13832,0.24448 -0.33223,0.4445 -0.43092,0.4445 -0.0987,0 -0.17943,-0.20002 -0.17943,-0.4445 z m 141.12329,-1.22066 c -0.45721,-0.6162 -0.83894,-1.7247 -0.34068,-1.39641 0.32375,0.2133 0.56288,0.80751 0.0557,0.0294 2.07732,4.94672 -4.27708,-6.020264 -6.82805,-8.782684 -0.81767,-0.84242 -1.36698,-1.66242 -1.22069,-1.82223 0.14628,-0.1598 0.26597,-0.13271 0.26597,0.0602 0,0.19291 -0.51323,0.185048 -0.18,-0.117062 0.33322,-0.30211 0.68872,0.0958 0.54471,-0.158754 -0.1489,-0.2632 1.06668,-1.150358 1.32509,-0.975878 0.24994,0.16875 0.73801,0.210094 1.75351,0.232364 1.88683,0.09933 3.18024,1.490113 4.20442,2.73811 3.44603,3.443939 1.58403,1.138123 2.73102,4.754934 0.50894,1.57581 0.71819,6.02206 0.26048,5.53473 -0.079,-0.0841 -0.56832,0.0236 -1.08745,0.23917 -0.70104,0.29117 -1.08287,0.20473 -1.48403,-0.33595 z m 2.10469,-3.86482 c 0,-0.84123 -0.1831,-1.65313 -0.4069,-1.80422 -0.22379,-0.1511 -0.40689,-0.0692 -0.40689,0.18206 0,0.25123 -0.28247,0.33837 -0.6277,0.19365 -0.54218,-0.22728 -0.53192,-0.0437 0.0754,1.34745 0.88332,2.02351 1.36613,2.05216 1.36613,0.0811 z m -96.87245,2.97412 -0.98644,-1.22237 1.11897,1.0776 c 1.04584,1.00718 1.30556,1.36714 0.98644,1.36714 -0.0729,0 -0.57642,-0.55007 -1.11897,-1.22237 z m -42.77722,-0.92739 c 2.79493,-3.18197 3.05684,-0.90432 0.69855,0.32279 -2.66438,1.36813 -3.22735,1.10797 -0.69855,-0.32282 z m 55.5179,-7.418877 c 1.66337,-2.345587 4.19893,-10.077497 6.43516,-10.688477 1.16506,-0.47954 1.34399,0.13116 2.04912,1.08184 1.39127,1.730513 1.34499,5.068257 0.83991,6.05584 -0.41504,3.51159 -2.51674,4.332362 -4.19588,6.299558 -6.19353,5.011946 -6.34854,-0.579984 -5.12831,-2.748761 z m -2.71693,0.02607 c 0.43442,-0.35893 0.593,-0.65896 0.35242,-0.66674 -0.24058,-0.008 -0.56595,0.536709 -0.54916,-0.294671 0.0168,-0.83137 0.29093,-2.663649 0.43533,-2.567099 0.74766,-0.650194 0.77418,-2.905579 1.27797,-2.81437 0.27169,0.0582 0.46888,-0.2421 0.43819,-0.6673 -0.0307,-0.4252 0.0975,-0.66963 0.28476,-0.54317 0.1873,0.12645 1.43007,-1.678329 1.67296,-2.174119 1.89628,-2.899735 2.91186,-0.186975 2.36421,-0.514331 0.61054,1.708086 -5.41292,8.132698 -5.16079,8.982162 0.15005,0 -0.25087,0.878808 -0.52949,1.245518 -0.2786,0.36671 -0.64245,0.383168 -0.79084,0.19561 -0.16559,-0.209297 -0.22995,0.17746 0.20444,-0.18148 z M 223.86688,70.169033 c -1.64161,-1.90888 -2.19496,-4.15705 -2.05568,-8.35188 -0.3317,-1.150263 0.7416,-3.771691 0.615,-4.14926 -0.15688,-0.45299 1.10461,-0.60894 0.1343,-0.49119 -0.52187,3.004082 0.33672,-1.429106 0.91089,-1.44776 0.27974,0.0611 0.47841,-0.0889 0.44148,-0.33337 -0.0369,-0.24448 0.55422,-0.49405 1.31365,-0.55461 2.39153,-0.1907 2.75363,0.99505 2.65047,8.67934 -0.0506,3.77058 -0.26861,6.76476 -0.51625,7.09072 -0.68123,0.89668 -2.5454,0.66085 -3.49383,-0.44199 z m 6.08087,-1.51249 c -0.3027,-8.3604 -0.23062,-12.018149 0.233,-11.82447 0.13189,0.0551 0.44778,-0.190215 0.73331,0.509286 0.31484,0.771308 0.60009,2.513173 0.72759,3.03041 0.5093,2.066211 -0.14346,9.071584 -0.68032,8.709124 -0.19719,-0.13313 -0.49565,3.3e-4 -0.66325,0.29657 -0.18292,0.32332 -0.32296,0.0351 -0.35033,-0.72092 z"
           id="path116"
           sodipodi:nodetypes="scsscssssssssscsssssssssssssssssssssssscssssssssssscssccsscsssccssscccccsscscssssssssssccssssscccsssssscsssssssssccscccccccssccsscccssscssccccsssssssssssss" />
        <path
           style="fill:#550000;stroke-width:0.425282"
           d="m 221.74205,100.31975 c 0,-10.377164 0.0584,-11.324994 0.71225,-11.551684 1.01685,-0.35255 4.75398,0.38387 7.83664,1.54427 1.45244,0.54673 3.68853,1.04984 4.96911,1.11802 3.18434,0.16954 3.80748,0.45111 4.77219,2.15627 1.39253,2.46136 1.13906,5.39334 -0.83749,9.687774 -1.48665,3.23002 -1.6513,3.89755 -1.48893,6.03644 l 0.18256,2.40483 -2.68177,-0.22465 c -1.47498,-0.12356 -3.52801,-0.46139 -4.56229,-0.75074 -1.03428,-0.28935 -2.31601,-0.44348 -2.84828,-0.34253 l -0.96777,0.18355 1.01724,0.49341 c 0.84634,0.41052 0.41907,0.49815 -2.54311,0.52159 l -3.56035,0.0282 z m 49.23461,10.83557 c 1.53773,-1.14769 4.58657,-2.67557 5.0167,-2.51403 0.52243,0.1962 -4.26661,2.98738 -5.10682,2.97638 -0.36544,-0.005 -0.33863,-0.14234 0.0901,-0.46235 z m 3.59686,-0.4915 c 0.9712,-0.48716 1.85796,-0.78509 1.97058,-0.66206 0.30353,0.33157 -2.15459,1.62871 -3.00412,1.58526 -0.40601,-0.0208 0.0545,-0.43209 1.03354,-0.9232 z m 4.00555,-0.48396 c 1.82029,-2.10086 3.48007,-6.11184 2.52913,-6.11184 -0.21505,0 -3.0381,1.436 -6.27344,3.19111 -3.23534,1.75511 -5.99639,3.06662 -6.13567,2.91447 -0.13928,-0.15215 0.59318,-0.71126 1.6277,-1.24248 1.04458,-0.53638 1.38071,-1.28091 1.66725,-1.59391 0.28248,-0.30856 0.52844,-0.19132 -0.25435,0.0713 -0.53156,0.17835 -1.14958,0.47672 -1.37337,0.66305 -0.2238,0.18632 -1.04776,0.47723 -1.83104,0.64646 l -1.42414,0.30771 1.22069,-1.12324 c 1.33312,-1.22669 9.05039,-5.16798 10.11919,-5.16798 0.36498,0 0.6636,0.18745 0.6636,0.41655 0,0.22911 0.64086,0.30295 1.42414,0.1641 1.32978,-0.23574 1.42414,-0.17381 1.42414,0.93464 0,2.16231 -2.98614,7.37466 -4.22492,7.37466 -0.22583,0 0.15266,-0.65008 0.84109,-1.44462 z m -4.2926,-5.42874 c 1.00463,-0.51587 2.99869,-0.79595 2.99869,-1.01762 0,-0.32537 -3.20802,1.32138 -3.8332,1.94374 -0.4979,0.49565 -0.75725,-0.10875 0.83451,-0.92612 z m 11.54196,6.42886 c 1.11539,-0.52359 3.53076,-0.52359 4.27242,0 0.42443,0.29963 -0.25728,0.42344 -2.23793,0.40645 -1.96443,-0.0168 -2.59576,-0.14298 -2.03449,-0.40645 z m 31.15329,-1.29815 c -0.6949,-0.95846 -1.63941,-2.67109 -2.09891,-3.80586 -0.77601,-1.9164 -0.7892,-2.1403 -0.18549,-3.14681 0.86481,-1.44184 1.29627,-1.36682 2.07607,0.36099 0.35859,0.79454 1.55707,2.34473 2.66328,3.44486 1.15754,1.15117 2.16857,2.61345 2.3818,3.44485 l 0.37049,1.44462 h -1.97189 c -1.80777,0 -2.07706,-0.14505 -3.23535,-1.74265 z m 5.89747,0.75475 c -0.34838,-0.54334 -0.63342,-1.22625 -0.63342,-1.51758 0,-0.29133 -0.61199,-1.21809 -1.35997,-2.05948 -2.14891,-2.41727 -2.70901,-3.51397 -2.70901,-5.30441 0,-1.43447 0.15169,-1.71221 1.07308,-1.964834 1.94149,-0.53232 3.87062,0.345474 5.31445,2.418164 1.58976,2.2822 2.73644,6.21412 2.35929,8.08995 -0.23981,1.19273 -0.42473,1.32609 -1.83881,1.32609 -1.16339,0 -1.7369,-0.25688 -2.20561,-0.9879 z m 10.80651,-0.20553 c -0.0627,-1.89562 0.60338,-3.69604 1.36728,-3.69604 0.34286,0 0.62042,-0.38597 0.62042,-0.86276 0,-1.15597 0.70479,-1.5674 1.48041,-0.86421 0.95342,0.86438 2.98985,4.93981 2.97297,5.94969 -0.008,0.48895 -0.52499,-0.31115 -1.14848,-1.77799 -0.6235,-1.46684 -1.43152,-2.93466 -1.79561,-3.26183 -0.74116,-0.66602 -0.83263,-0.41474 -1.30856,3.59521 -0.16885,1.42262 -0.44313,2.11136 -0.84082,2.11136 -0.46467,0 -0.53387,-0.40187 -0.32534,-1.88912 0.3211,-2.2901 -0.26104,-1.91304 -0.67869,0.43959 -0.29372,1.65448 -0.29727,1.65713 -0.34358,0.2561 z m 35.7602,0.74893 c 0.74167,-0.52359 3.15703,-0.52359 4.27243,0 0.56126,0.26347 -0.0701,0.3896 -2.03449,0.40645 -1.98066,0.017 -2.66236,-0.10682 -2.23794,-0.40645 z m 10.32272,-1.14789 c -1.18752,-1.70078 -2.67159,-5.90767 -2.30971,-6.54731 0.11998,-0.21207 0.83804,-0.25855 1.59569,-0.10328 0.85172,0.17455 1.37754,0.10495 1.37754,-0.18233 0,-0.25555 0.29862,-0.46464 0.66359,-0.46464 1.06881,0 8.78608,3.94129 10.1192,5.16798 l 1.22069,1.12324 -1.42414,-0.30771 c -0.78328,-0.16923 -1.60725,-0.46014 -1.83104,-0.64646 -0.22379,-0.18633 -0.86466,-0.47362 -1.42414,-0.63844 -0.99656,-0.29357 -1.00069,-0.28467 -0.20345,0.43754 0.44759,0.40546 1.42867,1.02761 2.18019,1.38255 0.75152,0.35493 1.25558,0.7664 1.12014,0.91435 -0.13545,0.14796 -2.9898,-1.20112 -6.34302,-2.99795 -3.35322,-1.79684 -6.21064,-3.14257 -6.34984,-2.99051 -0.38753,0.42335 1.64143,4.84544 2.85525,6.22299 0.75117,0.85248 0.89369,1.22237 0.47099,1.22237 -0.33336,0 -1.10643,-0.71658 -1.71794,-1.59239 z m 4.12215,0.83454 c -1.58964,-0.94056 -0.64537,-1.29261 0.98966,-0.36898 0.68655,0.38784 1.24828,0.80003 1.24828,0.91599 0,0.41619 -1.03944,0.16212 -2.23794,-0.54701 z m 2.44139,-0.0924 c -1.97959,-1.01038 -3.45981,-2.22742 -2.73304,-2.2471 0.50006,-0.0135 3.69405,1.67515 4.97097,2.62819 1.07763,0.8043 -0.41268,0.55052 -2.23793,-0.38109 z m 6.51036,0.40575 c 0.13831,-0.24447 0.33222,-0.4445 0.43091,-0.4445 0.0987,0 0.17943,0.20003 0.17943,0.4445 0,0.24447 -0.19391,0.4445 -0.43091,0.4445 -0.237,0 -0.31774,-0.20003 -0.17943,-0.4445 z m 14.64831,0.1254 c -1.40885,-0.37389 -3.43494,-2.33257 -4.27618,-4.13392 -0.44552,-0.95399 -0.80194,-1.89251 -0.79205,-2.08561 0.01,-0.19309 0.38815,0.41536 0.84058,1.35211 0.49872,1.03262 1.03529,1.61404 1.36284,1.47673 0.54129,-0.22691 2.55221,1.74135 2.35085,2.30098 -0.0589,0.16366 0.81565,0.35821 1.94341,0.43232 1.15833,0.0761 1.94687,0.31787 1.81236,0.55562 -0.2452,0.43342 -1.80736,0.48246 -3.24181,0.10177 z m 11.64602,-2.2271 c -0.0843,-2.55201 0.62028,-4.35327 2.17448,-5.55907 1.05623,-0.81946 3.77621,-0.32533 5.43504,0.98736 1.69699,1.34288 3.54239,4.53092 3.19507,5.51966 -0.27114,0.77188 -3.18941,1.3944 -7.22574,1.54138 l -3.49242,0.12717 z m -7.58339,-0.16513 c 0.15968,-1.18845 0.009,-1.71204 -1.93521,-3.88616 -1.23664,-1.38309 -2.83613,-3.6694 -3.55442,-5.080694 -1.4652,-2.87884 -2.55762,-3.80451 -3.49109,-2.95821 -0.48608,0.44069 -0.54721,0.40601 -0.33736,-0.1914 0.61995,-1.76484 2.80574,-0.25836 4.28669,2.95445 0.47464,1.029684 2.03118,3.202864 3.45898,4.829294 2.535,2.88764 2.85445,3.56862 2.34902,5.00745 -0.4231,1.20448 -0.97036,0.7674 -0.77661,-0.67473 z m -5.49493,-0.63314 c -0.78628,-1.03496 -0.22524,-1.23 0.61625,-0.21423 0.4063,0.49044 0.54967,0.89171 0.31859,0.89171 -0.23107,0 -0.65175,-0.30486 -0.93484,-0.67748 z m 6.65559,-11.755214 c -2.00318,-2.4339 -1.88967,-3.14594 0.12611,-0.7911 1.87418,2.18943 2.9654,4.442184 3.24983,6.709114 -0.27638,3.08746 -2.1915,3.81439 -2.44012,4.02788 -0.76164,0.65401 0.19082,-8.517996 -0.93582,-9.945894 z M 284.7158,105.1281 c -0.44139,-1.05827 -0.36712,-1.27731 0.82894,-2.44474 1.56878,-1.53122 3.94567,-1.74256 5.37532,-0.47792 0.86819,0.76798 0.88013,0.86618 0.26358,2.16863 -0.77642,1.64015 -1.34919,1.91644 -3.97307,1.91644 -1.77266,0 -2.06717,-0.13722 -2.49477,-1.16241 z m 84.10126,0.0714 c -1.8313,-2.00052 -0.87178,-3.79843 2.02717,-3.79843 2.22827,0 3.89134,1.32324 3.89134,3.09619 0,1.46258 -0.57232,1.79328 -3.1035,1.79328 -1.38584,0 -2.05295,-0.25855 -2.81501,-1.09104 z m 43.579,-2.30151 c -0.60728,-1.39116 -0.65427,-3.205237 -0.11213,-2.977957 0.34523,0.144717 1.49188,0.270877 1.49188,0.01962 0,-0.25123 0.18309,-0.333149 0.40689,-0.18206 0.23389,0.1579 1.23488,1.556587 1.54507,2.962477 1.16347,5.11945 -2.35374,2.13685 -3.33171,0.17792 z m -142.79674,-1.70356 c -0.36143,-0.60258 -0.65714,-1.846874 -0.65714,-2.765094 0,-2.31057 0.90824,-6.36274 1.42612,-6.36274 0.92004,0 2.19685,1.41295 2.65892,2.94243 1.3157,4.35499 -1.48961,9.416964 -3.4279,6.185404 z m 60.87495,0.40366 c -1.68255,-1.28741 -1.22693,-3.133604 2.14739,-8.701234 1.67846,-2.76944 3.05174,-4.87936 3.05174,-4.68872 0,0.57446 -1.22249,2.99911 -3.31245,6.56984 -2.63552,4.50285 -2.58467,6.623064 0.15885,6.623064 2.96511,0 6.57743,-4.300194 7.65457,-9.112194 0.27199,-1.21508 0.3014,-1.23482 0.33121,-0.22225 0.0824,2.79822 -3.19605,8.079794 -5.82509,9.384264 -2.03217,1.00832 -3.03497,1.04342 -4.20622,0.14723 z m 56.73683,-0.11841 c -1.58997,-1.919244 -1.17704,-7.334094 0.66687,-8.744964 1.43788,-1.10019 1.74983,-0.80046 2.24938,2.16124 0.6608,3.91768 0.60448,4.87498 -0.3661,6.222894 -0.99285,1.37884 -1.63189,1.46926 -2.55015,0.36083 z m 34.09996,-1.881894 c -0.49864,-0.88138 0.18279,-2.41741 2.25655,-5.08646 1.13968,-1.46684 2.47713,-3.46485 2.97212,-4.44003 0.49498,-0.97517 1.19573,-1.83526 1.55722,-1.91131 1.41769,-0.29825 2.71742,2.39317 2.21394,4.58456 -0.37974,1.6528 -2.86817,4.45493 -5.31342,5.98324 -2.25897,1.411884 -3.24781,1.645244 -3.68641,0.87 z m -1.81674,-2.26563 c 0,-0.87588 2.70997,-5.83678 4.27258,-7.82142 1.46495,-1.8606 2.64468,-2.44469 2.64468,-1.30939 0,0.59114 -2.1009,4.42371 -2.9759,5.42881 -0.2655,0.30498 -1.0949,1.3781 -1.8431,2.3847 -1.35614,1.82451 -2.09826,2.29042 -2.09826,1.3173 z m -91.83282,-1.49694 c 0.36709,-2.47119 1.6636,-5.889462 3.94618,-8.565782 1.58729,-1.86109 2.49126,-1.968058 2.84971,-1.585948 0.36179,0.38569 0.32472,0.81007 -0.15534,1.77799 -0.34681,0.69926 -0.63789,1.10822 -0.64685,0.9088 -0.009,-0.19943 0.17325,-0.7495 0.40492,-1.22237 0.32687,-0.66721 0.28841,-0.85977 -0.17174,-0.85977 -1.25365,0 -5.05331,6.00167 -5.69858,9.00106 -0.41903,1.9478 0.42328,1.44406 2.04393,-1.22236 1.5964,-2.62652 2.2957,-3.3208 1.08852,-1.0807 -1.08328,2.0102 -2.96922,4.41443 -3.46277,4.41443 -0.26528,0 -0.34126,-0.60081 -0.19798,-1.56535 z m 77.1845,-1.4616 c 0,-0.27377 0.35417,-0.70482 0.78705,-0.95789 0.93842,-0.54864 3.28193,-0.61478 3.28193,-0.0926 0,0.20213 -0.55654,0.27828 -1.23675,0.16922 -0.8165,-0.13091 -1.50781,0.0697 -2.03449,0.59038 -0.43876,0.43376 -0.79774,0.56467 -0.79774,0.29091 z m -66.03841,-3.53457 c -0.11773,-0.66945 -0.15085,-1.28722 -0.0736,-1.37282 0.32615,-0.36143 1.00838,0.49569 1.00838,1.26688 0,1.35213 -0.70165,1.43165 -0.93478,0.10594 z m -1.03546,-0.10594 c 0,-0.61119 0.0924,-0.86122 0.20523,-0.55562 0.11288,0.30559 0.11288,0.80565 0,1.11124 -0.11287,0.30559 -0.20523,0.0556 -0.20523,-0.55562 z m -107.28178,-3.341 c -0.2238,-0.0755 -0.91044,-0.25854 -1.52587,-0.40682 -1.0134,-0.24416 -1.64227,-1.58615 -0.74329,-1.58615 0.20662,0 0.92134,-0.50157 1.58826,-1.1146 0.68901,-0.63334 2.13998,-1.30673 3.36048,-1.55958 1.18134,-0.24474 2.76589,-0.8433 3.52122,-1.33014 1.6558,-1.06722 2.37899,-1.11698 2.70595,-0.1862 0.33612,0.95685 -0.3249,2.16792 -1.89323,3.46859 -1.87108,1.55175 -5.87114,3.10016 -7.01352,2.7149 z m -4.81496,-3.1783 c -0.1492,-0.16298 -0.27127,-0.9625 -0.27127,-1.77671 0,-2.84333 5.00954,-7.24467 8.25989,-7.25705 1.4251,-0.005 3.358,1.05848 3.70196,2.03764 0.48794,1.38906 -1.57289,3.61889 -4.13545,4.47457 -1.2833,0.42851 -2.97087,1.23784 -3.75015,1.7985 -1.36504,0.9821 -3.24144,1.33867 -3.80498,0.72305 z m 200.14891,-1.58056 c -1.63571,-2.5511 0.43267,-11.45802 2.66081,-11.45802 1.08892,0 1.40966,1.94737 0.80259,4.87292 -1.4356,10.6758 -0.0949,-2.42784 1.58187,-3.74961 0.80941,-0.54646 1.7718,2.05806 1.96298,5.31241 0.17987,3.06175 0.12491,3.34483 -0.85796,4.41852 -1.3002,1.42035 -2.51677,1.48145 -2.92813,0.14707 -0.29732,-0.96445 -0.31449,-0.95652 -0.48138,0.22224 -0.21967,1.55151 -1.80913,1.68749 -2.74078,0.23447 z M 224.02673,71.136026 c -1.21676,-1.04554 -2.29267,-3.07169 -2.26876,-4.27253 0.009,-0.46169 0.27654,-0.14344 0.63226,0.75263 0.87675,2.20858 2.30559,2.978893 3.54508,2.978893 1.8623,0 1.47109,-0.072 1.53759,-6.76562 0.0517,-5.20775 0.54609,-5.731333 0.794,-3.322063 0.68888,6.69493 0.37759,10.21853 -0.99093,11.21676 -0.81566,0.59495 -2.15447,0.35265 -3.24924,-0.58807 z m 6.08103,-2.01344 c -0.14705,-0.64003 -0.1669,-1.27344 -0.0441,-1.40758 0.12278,-0.13413 0.22325,0.0895 0.22325,0.49695 0,1.0861 0.67897,0.90351 0.96423,-0.25929 0.13494,-0.55006 0.24683,-2.50029 0.24863,-4.33384 0.006,-5.6204 -1.05108,-9.13133 -1.36194,-4.27725 l -0.26381,2.32125 -0.25573,-0.216784 -0.0636,-2.049946 c -0.15318,-4.93125 1.55875,-4.07732 2.37091,1.18264 0.51548,3.33849 0.26511,6.50138 -0.6712,8.47932 -0.71727,1.51523 -0.81203,1.52056 -1.14655,0.0645 z M 222.3673,57.629841 c -0.009,-0.84023 0.89084,-2.040375 1.76591,-2.768115 1.14028,-0.94829 2.81184,-0.69082 3.55459,0.5475 0.37116,0.61881 0.0681,1.382991 -0.0438,1.505221 -0.1119,0.12224 0.008,-0.441907 -0.36313,-1.060721 -0.36149,-0.602678 -0.85903,-0.796919 -1.34724,-0.887311 -1.15699,-0.214215 -2.48269,0.805969 -3.41291,3.043691 -0.41845,1.006622 -0.14937,-0.01356 -0.15345,-0.380265 z m 0.80896,1.117055 c -0.35406,-0.62583 0.70491,-1.98376 1.35402,-1.73627 0.25335,0.0966 0.1279,0.59368 -0.30872,1.2233 -0.5292,0.76312 -0.82237,0.907 -1.0453,0.51297 z m 1.41407,-0.21383 c 0,-0.38114 0.1831,-0.69298 0.4069,-0.69298 0.22379,0 0.40689,0.18822 0.40689,0.41826 0,0.23005 -0.1831,0.54189 -0.40689,0.69298 -0.2238,0.1511 -0.4069,-0.0371 -0.4069,-0.41826 z"
           id="path114"
           sodipodi:nodetypes="ssssssscssscsscssscsssssssssssssscssssssssssssssssssssscssssssssssssssscssssssssssssssssscssssssssssssssssssssssssssssssssssscsscsscssssssssscsscscscssssssscssscsssccsssssssssssssssssssssssssssssssssssssssssssssssssssscsscsscsssssssssssssssssscssssssssssssssssssscscsssssscssssssscsscssccss" />
      </g>
      <path
         style="fill:#550000;stroke-width:0.425283"
         d="m 249.73078,92.440866 c -0.6949,-0.95846 -1.63941,-2.67109 -2.09891,-3.805862 -0.77601,-1.916398 -0.7892,-2.140299 -0.18549,-3.146808 0.86481,-1.441842 1.29627,-1.366822 2.07607,0.360989 0.35859,0.794541 1.55707,2.34473 2.66328,3.444861 1.15754,1.15117 2.16857,2.61345 2.3818,3.44485 l 0.37049,1.44462 h -1.97189 c -1.80777,0 -2.07706,-0.14505 -3.23535,-1.74265 z m 5.89747,0.75475 c -0.34838,-0.54334 -0.63342,-1.22625 -0.63342,-1.51758 0,-0.29133 -0.61199,-1.21809 -1.35997,-2.05948 -2.14891,-2.417271 -2.70901,-3.513971 -2.70901,-5.304412 0,-1.434468 0.15169,-1.712209 1.07308,-1.964833 1.94149,-0.53232 3.87062,0.345475 5.31445,2.418165 1.58976,2.2822 2.73644,6.21412 2.35929,8.08995 -0.23981,1.19273 -0.42473,1.32609 -1.83881,1.32609 -1.16339,0 -1.7369,-0.25688 -2.20561,-0.9879 z"
         id="path114-6"
         sodipodi:nodetypes="ssssscssssssssssss" />
      <path
         style="fill:#550000;stroke-width:0.425283"
         d="m 251.27168,111.01728 c -0.2238,-0.0755 -0.91044,-0.25854 -1.52587,-0.40682 -1.0134,-0.24416 -1.64227,-1.58615 -0.74329,-1.58615 0.20662,0 0.92134,-0.50157 1.58826,-1.1146 0.68901,-0.63334 2.13998,-1.30673 3.36048,-1.55958 1.18134,-0.24474 2.76589,-0.8433 3.52122,-1.33014 1.6558,-1.06722 2.37899,-1.11698 2.70595,-0.1862 0.33612,0.95685 -0.3249,2.16792 -1.89323,3.46859 -1.87108,1.55175 -5.87114,3.10016 -7.01352,2.7149 z m -4.81496,-3.1783 c -0.1492,-0.16298 -0.27127,-0.9625 -0.27127,-1.77671 0,-2.84333 5.00954,-7.244674 8.25989,-7.257054 1.4251,-0.005 3.358,1.05848 3.70196,2.037644 0.48794,1.38906 -1.57289,3.61889 -4.13545,4.47457 -1.2833,0.42851 -2.97087,1.23784 -3.75015,1.7985 -1.36504,0.9821 -3.24144,1.33867 -3.80498,0.72305 z"
         id="path114-3"
         sodipodi:nodetypes="sssssssssscsssss" />
      <path
         style="fill:#550000;stroke-width:0.425283"
         d="m 299.42923,99.273021 c -0.2238,-0.0755 -0.91044,-0.25854 -1.52587,-0.40682 -1.0134,-0.24416 -1.64227,-1.58615 -0.74329,-1.58615 0.20662,0 0.92134,-0.50157 1.58826,-1.1146 0.68901,-0.63334 2.13998,-1.30673 3.36048,-1.55958 1.18134,-0.24474 2.76589,-0.8433 3.52122,-1.33014 1.6558,-1.06722 2.37899,-1.11698 2.70595,-0.1862 0.33612,0.95685 -0.3249,2.16792 -1.89323,3.46859 -1.87108,1.55175 -5.87114,3.10016 -7.01352,2.7149 z m -4.81496,-3.1783 c -0.1492,-0.16298 -0.27127,-0.9625 -0.27127,-1.77671 0,-2.84333 5.00954,-7.24467 8.25989,-7.25705 1.4251,-0.005 3.358,1.05848 3.70196,2.03764 0.48794,1.38906 -1.57289,3.61889 -4.13545,4.47457 -1.2833,0.42851 -2.97087,1.23784 -3.75015,1.7985 -1.36504,0.9821 -3.24144,1.33867 -3.80498,0.72305 z"
         id="path114-3-5"
         sodipodi:nodetypes="sssssssssscsssss" />
      <path
         style="fill:#550000;stroke-width:0.425283"
         d="m 358.37441,107.10628 c -0.16778,0.16624 -0.6391,0.69806 -1.04743,1.1818 -0.67238,0.79656 -2.15389,0.75742 -1.75106,-0.0463 0.0926,-0.18471 -0.0356,-1.04841 -0.28474,-1.91933 -0.25745,-0.89976 -0.20927,-2.49865 0.11159,-3.70306 0.31056,-1.16576 0.48549,-2.850539 0.38873,-3.743945 -0.21212,-1.958478 0.0675,-2.627296 1.04607,-2.502512 1.00602,0.128278 1.7925,1.261898 2.25251,3.246789 0.54881,2.368048 0.14064,6.637878 -0.71567,7.486518 z m -4.99893,2.8803 c -0.21256,0.0603 -0.98201,-0.18878 -1.7099,-0.55363 -2.5419,-1.27409 -4.23186,-7.72478 -2.78644,-10.636084 0.63411,-1.276257 2.45098,-2.527695 3.48046,-2.396429 1.46044,0.186226 2.53042,3.027759 2.1471,5.702073 -0.19196,1.33927 -0.22463,3.21059 -0.0726,4.15848 0.26631,1.6604 -0.25573,3.49765 -1.05861,3.72559 z"
         id="path114-3-5-6"
         sodipodi:nodetypes="sssssssssscsssss" />
      <path
         style="fill:#550000;stroke-width:0.425283"
         d="m 417.14512,86.691228 c -0.16778,0.16624 -0.6391,0.69806 -1.04743,1.1818 -0.67238,0.79656 -2.15389,0.75742 -1.75106,-0.0463 0.0926,-0.18471 -0.0356,-1.04841 -0.28474,-1.91933 -0.25745,-0.89976 -0.20927,-2.49865 0.11159,-3.70306 0.31056,-1.16576 0.48549,-2.85054 0.38873,-3.743943 -0.21212,-1.958478 0.0675,-2.627296 1.04607,-2.502512 1.00602,0.128278 1.7925,1.261898 2.25251,3.246785 0.54881,2.36805 0.14064,6.63788 -0.71567,7.48652 z m -4.99893,2.8803 c -0.21256,0.0603 -0.98201,-0.18878 -1.7099,-0.55363 -2.5419,-1.27409 -4.23186,-7.72478 -2.78644,-10.636082 0.63411,-1.276257 2.45098,-2.527695 3.48046,-2.396429 1.46044,0.186226 2.53042,3.027761 2.1471,5.702071 -0.19196,1.33927 -0.22463,3.21059 -0.0726,4.15848 0.26631,1.6604 -0.25573,3.49765 -1.05861,3.72559 z"
         id="path114-3-5-6-2"
         sodipodi:nodetypes="sssssssssscsssss" />
      <path
         style="fill:#550000;stroke-width:0.360602"
         d="m 308.24182,109.74448 c -0.21261,0.0709 -0.83217,0.31434 -1.37682,0.54091 -0.89687,0.37309 -2.25605,-0.0286 -1.60648,-0.47479 0.1493,-0.10254 0.32757,-0.72406 0.39615,-1.38113 0.0708,-0.67884 0.66527,-1.75716 1.37669,-2.4974 0.68859,-0.71649 1.42998,-1.8213 1.64752,-2.45514 0.4769,-1.38945 0.9659,-1.77485 1.82969,-1.44203 0.88798,0.34214 1.22686,1.31439 0.97057,2.78461 -0.30578,1.75403 -2.15214,4.56291 -3.23732,4.92497 z m -5.62196,0.69914 c -0.21769,-0.0127 -0.84493,-0.37732 -1.39388,-0.81041 -1.917,-1.51239 -1.2647,-6.3398 1.07555,-7.95957 1.02635,-0.70995 3.14,-1.10359 4.0487,-0.75348 1.28909,0.49668 1.30337,2.70557 0.0287,4.43254 -0.63836,0.86484 -1.31209,2.13289 -1.49717,2.81788 -0.32419,1.19987 -1.43961,2.32081 -2.26186,2.27304 z"
         id="path114-3-5-1-2"
         sodipodi:nodetypes="sssssssssscsssss" />
    </g>
  </g>
</svg>
