<?xml version="1.0" encoding="UTF-8" standalone="no"?>
<svg
   xmlns:dc="http://purl.org/dc/elements/1.1/"
   xmlns:cc="http://creativecommons.org/ns#"
   xmlns:rdf="http://www.w3.org/1999/02/22-rdf-syntax-ns#"
   xmlns:svg="http://www.w3.org/2000/svg"
   xmlns="http://www.w3.org/2000/svg"
   xmlns:sodipodi="http://sodipodi.sourceforge.net/DTD/sodipodi-0.dtd"
   xmlns:inkscape="http://www.inkscape.org/namespaces/inkscape"
   width="340mm"
   height="140mm"
   viewBox="0 0 340 140"
   version="1.1"
   id="svg8"
   inkscape:version="1.0.1 (1.0.1+r73)"
   sodipodi:docname="header.svg">
  <defs
     id="defs2" />
  <sodipodi:namedview
     id="base"
     pagecolor="#ffffff"
     bordercolor="#666666"
     borderopacity="1.0"
     inkscape:pageopacity="0.0"
     inkscape:pageshadow="2"
     inkscape:zoom="0.24748737"
     inkscape:cx="703.87174"
     inkscape:cy="548.55656"
     inkscape:document-units="mm"
     inkscape:current-layer="layer1"
     inkscape:document-rotation="0"
     showgrid="false"
     inkscape:window-width="1366"
     inkscape:window-height="704"
     inkscape:window-x="0"
     inkscape:window-y="34"
     inkscape:window-maximized="1"
     height="209mm" />
  <metadata
     id="metadata5">
    <rdf:RDF>
      <cc:Work
         rdf:about="">
        <dc:format>image/svg+xml</dc:format>
        <dc:type
           rdf:resource="http://purl.org/dc/dcmitype/StillImage" />
        <dc:title />
      </cc:Work>
    </rdf:RDF>
  </metadata>
  <g
     inkscape:label="Capa 1"
     inkscape:groupmode="layer"
     id="layer1">
    <g
       id="g847"
       transform="matrix(1.6381881,0,0,2.047584,-8.7555166,15.118091)"
       style="fill:#550000;fill-opacity:1;opacity:0.96">
      <path
         style="fill:#550000;stroke-width:0.38336;fill-opacity:1"
         d="m 100.08706,53.395917 c -2.734215,-1.540965 -4.240955,-5.218149 -4.259155,-10.394402 -0.009,-2.535257 -0.82387,-4.131351 -2.85649,-5.594472 -1.760498,-1.267241 -5.178698,-1.068936 -8.820018,0.511686 -1.60441,0.696441 -3.64021,1.345835 -4.524,1.443102 -3.13625,0.345154 -6.32315,-1.427213 -7.16658,-3.985629 -0.55203,-1.674484 -2.03489,-3.690223 -3.13573,-4.262572 -0.60203,-0.313007 -1.16124,-0.268802 -2.32574,0.183851 -3.02229,1.174792 -3.84789,0.923335 -8.25597,-2.514527 -1.57563,-1.228837 -4.73548,-1.172612 -5.79889,0.103185 -0.57208,0.686347 -0.69182,1.222573 -0.49978,2.238319 0.53316,2.82014 0.63176,5.533741 0.23755,6.538007 -0.88432,2.252831 -3.986,2.104598 -5.2929,-0.25295 -0.59091,-1.065952 -0.64429,-1.808438 -0.39874,-5.546059 0.41917,-6.380636 0.38279,-7.249779 -0.36773,-8.786284 -1.04675,-2.142953 -2.67555,-3.078052 -5.45011,-3.128917 -1.28352,-0.02349 -2.6537,-0.06608 -3.04484,-0.09446 -0.39113,-0.02842 -1.39726,-0.724916 -2.23583,-1.547752 -0.85085,-0.834881 -2.22318,-1.699378 -3.10519,-1.956094 -1.38342,-0.402659 -1.91428,-0.355595 -4.25712,0.377451 -3.53061,1.104672 -6.4942,3.285914 -10.30488,7.584523 -1.71136,1.930493 -3.88832,4.383571 -4.83767,5.451283 -2.36193,2.656397 -3.38376,3.480997 -6.1778596,4.985455 l -2.40313,1.293941 V 14.508559 -7.0254818 H 108.84952 212.89278 V 0.33758675 7.7006548 l -1.45855,0.611996 c -2.22847,0.935035 -6.18584,1.111024 -8.74308,0.388818 -3.76492,-1.063266 -7.45922,-0.528575 -9.56016,1.3836852 -1.16419,1.059641 -3.2701,4.712712 -4.36559,7.572862 -1.13177,2.954879 -2.43598,3.774479 -5.48663,3.447951 -2.07078,-0.221647 -2.23368,-0.177642 -2.9171,0.78806 -1.62017,2.289361 -2.46526,2.91364 -3.56693,2.634905 -0.5755,-0.145612 -1.65463,-0.29102 -2.39805,-0.323127 -1.13837,-0.04917 -1.43866,0.116528 -1.90289,1.049979 -0.46428,0.933541 -0.47194,1.469912 -0.0486,3.400681 0.75744,3.454557 0.91191,6.915767 0.36583,8.196535 -0.95693,2.244333 -4.38066,2.832512 -6.05227,1.039751 -0.588,-0.630614 -0.73131,-1.362154 -0.72025,-3.676681 0.008,-1.589183 0.16401,-3.95425 0.34762,-5.2557 0.2874,-2.037246 0.23654,-2.470704 -0.36579,-3.117292 -1.05249,-1.129817 -2.09932,-0.914133 -3.69063,0.760397 -1.26688,1.333134 -1.64296,1.511414 -3.18837,1.511414 -2.10097,0 -4.82005,-1.30287 -7.23944,-3.468827 -4.49829,-4.027093 -8.01447,-3.014649 -11.97091,3.446894 -1.0004,1.633817 -2.18956,3.1468 -2.64257,3.362185 -0.45302,0.215383 -2.46211,0.835657 -4.46465,1.378379 -4.44979,1.205976 -5.11006,1.6087 -6.39357,3.899671 -1.04828,1.871092 -3.37356,3.956205 -5.13914,4.608331 -0.56003,0.206853 -2.33105,0.376093 -3.93559,0.376093 -4.46669,0 -4.91437,0.361636 -6.78247,5.478876 -1.44411,3.955838 -2.67419,5.728628 -4.48487,6.463603 -1.85822,0.754267 -4.39188,0.642732 -6.00106,-0.264177 z m 54.84776,-6.589776 c -0.43654,-1.115438 0.21432,-2.443552 1.19749,-2.443552 0.58236,0 2.30792,1.481205 2.30792,1.981094 0,0.567003 -1.30724,1.419588 -2.17661,1.419588 -0.66327,0 -1.06843,-0.291835 -1.3288,-0.95713 z M 88.235337,45.537699 c -2.46648,-1.105891 -3.37744,-2.299133 -3.23342,-4.235405 0.1026,-1.379438 0.3306,-1.774442 1.44344,-2.50071 2.32529,-1.51754 6.104548,-0.966266 7.600568,1.108678 1.39146,1.929932 0.24113,4.76361 -2.362878,5.820603 -1.59859,0.648884 -1.56553,0.650735 -3.44771,-0.193166 z m 61.217133,-2.02528 c -1.86952,-1.523441 -1.77381,-2.775847 0.2402,-3.142902 2.05102,-0.373799 2.91336,0.06632 2.91336,1.486918 0,0.671797 -0.21003,1.425493 -0.46673,1.674876 -0.60657,0.589267 -1.95212,0.579806 -2.68683,-0.01889 z m 4.34863,-3.546102 c -1.01453,-1.252977 -1.01057,-1.883921 0.0222,-3.538651 1.04212,-1.669754 1.3806,-1.876364 3.08565,-1.883482 2.94011,-0.01228 4.65021,3.702975 2.57585,5.596153 -0.68194,0.622378 -1.38236,0.821571 -2.88887,0.821571 -1.68513,0 -2.11172,-0.151961 -2.7948,-0.995591 z M 27.783957,32.048764 c -0.83714,-0.684316 -1.19668,-1.312358 -1.19668,-2.090332 0,-1.413481 0.97262,-3.694942 1.85162,-4.343313 2.13078,-1.571709 7.09415,0.728278 7.09415,3.287372 0,1.337838 -1.32807,2.779188 -3.29727,3.578507 -1.94292,0.788648 -3.09514,0.676776 -4.45182,-0.432234 z m 151.479113,0.237738 c -1.12241,-1.204869 -0.15855,-3.793759 1.41243,-3.793759 0.80078,0 2.65733,1.583931 2.65733,2.267121 0,0.677982 -1.85378,2.267121 -2.64467,2.267121 -0.40441,0 -1.0457,-0.333218 -1.42509,-0.740483 z M 25.809377,24.068292 c -1.02819,-0.367276 -1.94473,-1.339641 -1.94473,-2.063175 0,-0.749854 2.09418,-2.199241 3.18103,-2.20159 1.71937,-0.0035 2.5274,2.708812 1.164,3.907484 -0.72392,0.636451 -1.35556,0.730469 -2.4003,0.357281 z m 173.542373,0.0097 c -0.28123,-0.109298 -0.67969,-0.628927 -0.88547,-1.154732 -0.61822,-1.579678 1.33489,-3.68547 2.18251,-2.353111 1.34649,2.116535 0.56453,4.231342 -1.29704,3.507843 z m 2.65052,-4.84264 c -0.5348,-0.296996 -1.33566,-0.546023 -1.7797,-0.553387 -1.20263,-0.01997 -2.49871,-1.56476 -2.49871,-2.978245 0,-1.652543 0.89378,-3.607855 1.99019,-4.353906 1.85888,-1.264877 3.78653,-0.68614 7.14122,2.143998 1.32919,1.121354 1.54695,1.521233 1.54695,2.840758 0,2.242912 -1.29787,3.471855 -3.64788,3.454179 -0.97884,-0.007 -2.21727,-0.256391 -2.75207,-0.553397 z"
         id="path849"
         sodipodi:nodetypes="scsssssssscsscsccsscscscccccccsssssssssssscsssssssssssssssssssssssssssssssssssssssssssssssssssscsssssssssssscs" />
    </g>
  </g>
</svg>
