<?xml version="1.0" encoding="UTF-8" standalone="no"?>
<svg
   xmlns:dc="http://purl.org/dc/elements/1.1/"
   xmlns:cc="http://creativecommons.org/ns#"
   xmlns:rdf="http://www.w3.org/1999/02/22-rdf-syntax-ns#"
   xmlns:svg="http://www.w3.org/2000/svg"
   xmlns="http://www.w3.org/2000/svg"
   xmlns:xlink="http://www.w3.org/1999/xlink"
   xmlns:sodipodi="http://sodipodi.sourceforge.net/DTD/sodipodi-0.dtd"
   xmlns:inkscape="http://www.inkscape.org/namespaces/inkscape"
   version="1.1"
   id="Layer_1"
   x="0px"
   y="0px"
   width="370.0986"
   height="177.12617"
   viewBox="0 0 370.09862 177.12619"
   enable-background="new 0 0 722.569 346.291"
   xml:space="preserve"
   inkscape:version="1.0.1 (1.0.1+r73)"
   sodipodi:docname="qgispe-logo-creado-con-qp_black.svg"
   inkscape:export-filename="C:\Users\Computer\Downloads\material-difusion-master\material-difusion-master\qgispe-logo-creado-con-qp_black_.png"
   inkscape:export-xdpi="278"
   inkscape:export-ydpi="278"><metadata
   id="metadata46"><rdf:RDF><cc:Work
       rdf:about=""><dc:format>image/svg+xml</dc:format><dc:type
         rdf:resource="http://purl.org/dc/dcmitype/StillImage" /><dc:title /></cc:Work></rdf:RDF></metadata><defs
   id="defs44"><linearGradient
     inkscape:collect="always"
     xlink:href="#SVGID_5_"
     id="linearGradient4329"
     x1="721.1015"
     y1="248.36922"
     x2="717.75787"
     y2="167.98872"
     gradientUnits="userSpaceOnUse"
     gradientTransform="translate(-100.25588,2.3875393)" /><linearGradient
     inkscape:collect="always"
     xlink:href="#SVGID_5_"
     id="linearGradient4440"
     x1="105.5037"
     y1="98.686951"
     x2="606.49799"
     y2="98.686951"
     gradientUnits="userSpaceOnUse" /><linearGradient
     gradientTransform="translate(-103.13974,-80.58321)"
     y2="102.9362"
     x2="186.5125"
     y1="250.2354"
     x1="188.7529"
     gradientUnits="userSpaceOnUse"
     id="linearGradient4331"
     xlink:href="#SVGID_5_" /><linearGradient
     y2="102.9362"
     x2="186.5125"
     y1="250.2354"
     x1="188.7529"
     gradientUnits="userSpaceOnUse"
     id="linearGradient871"><stop
       id="stop36-3"
       style="stop-color:#589632"
       offset="0" /><stop
       id="stop38-6"
       style="stop-color:#93B023"
       offset="1" /></linearGradient><clipPath
     id="clipPath1059"
     clipPathUnits="userSpaceOnUse"><path
       id="path1061"
       d="m 27.687495,35.232388 -6.794088,-6.869248 -4.048341,-4.725544 2.938698,-4.317872 4.991981,0.484172 2.746539,2.397856 1.584849,2.428551 7.229991,7.29179 0.478628,-2.162215 L 37.906793,18.9345 35.146057,11.478405 18.579748,7.1643198 8.0462602,12.449367 4.5874451,20.470182 5.7246335,33.019463 22.454512,38.518227 25.489361,37.422989 Z"
       style="fill:none;stroke:#000000;stroke-width:0.264583px;stroke-linecap:butt;stroke-linejoin:miter;stroke-opacity:1" /></clipPath></defs><sodipodi:namedview
   pagecolor="#ffffff"
   bordercolor="#666666"
   borderopacity="1"
   objecttolerance="10"
   gridtolerance="10"
   guidetolerance="10"
   inkscape:pageopacity="0"
   inkscape:pageshadow="2"
   inkscape:window-width="1366"
   inkscape:window-height="704"
   id="namedview42"
   showgrid="false"
   inkscape:zoom="5.0260952"
   inkscape:cx="127.67359"
   inkscape:cy="136.2067"
   inkscape:window-x="0"
   inkscape:window-y="34"
   inkscape:window-maximized="1"
   inkscape:current-layer="Layer_1"
   inkscape:snap-page="false"
   fit-margin-top="0"
   fit-margin-left="0"
   fit-margin-right="0"
   fit-margin-bottom="0"
   inkscape:document-rotation="0" /><linearGradient
   id="SVGID_1_"
   gradientUnits="userSpaceOnUse"
   x1="350.02249"
   y1="247.7832"
   x2="347.78201"
   y2="100.4837"
   gradientTransform="translate(-110.63499,-98.765)"><stop
     offset="0"
     style="stop-color:#589632"
     id="stop6" /><stop
     offset="1"
     style="stop-color:#93B023"
     id="stop8" /></linearGradient><linearGradient
   id="SVGID_2_"
   gradientUnits="userSpaceOnUse"
   x1="459.22171"
   y1="246.1226"
   x2="456.98129"
   y2="98.822403"
   gradientTransform="translate(-110.63499,-98.765)"><stop
     offset="0"
     style="stop-color:#589632"
     id="stop13" /><stop
     offset="1"
     style="stop-color:#93B023"
     id="stop15" /></linearGradient><linearGradient
   id="SVGID_3_"
   gradientUnits="userSpaceOnUse"
   x1="553.50677"
   y1="244.6875"
   x2="551.26642"
   y2="97.388199"
   gradientTransform="translate(-110.63499,-98.765)"><stop
     offset="0"
     style="stop-color:#589632"
     id="stop20" /><stop
     offset="1"
     style="stop-color:#93B023"
     id="stop22" /></linearGradient><linearGradient
   id="SVGID_4_"
   gradientUnits="userSpaceOnUse"
   x1="234.4702"
   y1="250.03419"
   x2="232.211"
   y2="101.4977"><stop
     offset="0"
     style="stop-color:#589632"
     id="stop27" /><stop
     offset="1"
     style="stop-color:#93B023"
     id="stop29" /></linearGradient><linearGradient
   id="SVGID_5_"
   gradientUnits="userSpaceOnUse"
   x1="188.7529"
   y1="250.2354"
   x2="186.5125"
   y2="102.9362"><stop
     offset="0"
     style="stop-color:#589632"
     id="stop36" /><stop
     offset="1"
     style="stop-color:#93B023"
     id="stop38" /></linearGradient><g
   transform="matrix(1.1991717,0,0,1.1991717,11.662743,13.134173)"
   id="g3618" /><g
   style="font-style:normal;font-weight:normal;font-size:53.1027px;line-height:100%;font-family:sans-serif;letter-spacing:0px;word-spacing:0px;fill:#ffffff;fill-opacity:1;stroke:none;stroke-width:1px;stroke-linecap:butt;stroke-linejoin:miter;stroke-opacity:1"
   id="text3538"
   transform="translate(0.38776347,3.5676322)" /><g
   transform="matrix(0.37564322,0,0,0.37564322,135.23442,76.607633)"
   id="g4242"
   fill="param(fill) #FFF"
   stroke="param(outline) #000"
   stroke-width="param(outline-width) 1" />
<rect
   style="fill:#550000;stroke-width:1.4"
   id="rect906"
   width="370.0986"
   height="177.12617"
   x="0"
   y="0"
   inkscape:export-xdpi="600"
   inkscape:export-ydpi="600" /><rect
   style="fill:#ffffff;stroke-width:1.40928"
   id="rect908"
   width="163.4214"
   height="165.69028"
   x="5.9752045"
   y="5.683157"
   inkscape:export-xdpi="600"
   inkscape:export-ydpi="600" /><path
   id="path40"
   d="m 97.300021,135.84842 c -3.259,0.75 -6.648,1.157 -10.144,1.157 -25.005,0 -46.271,-20.562 -46.271,-47.221994 0,-26.66 21.032,-46.769 46.271,-46.769 25.238999,0 45.335999,20.108 45.335999,46.769 0,4.336004 -0.54,8.507994 -1.539,12.459994 l 23.144,23.14 c 5.967,-10.455 9.305,-22.611 9.305,-35.777994 0,-41.09 -32.791,-71.856 -76.713999,-71.856 -43.722,0 -76.511999,30.564 -76.511999,71.856 0,41.493994 32.790999,72.665994 76.511999,72.665994 11.287,0 21.834999,-2.076 31.283999,-5.854 z"
   style="fill:#550000;stroke:none;stroke-opacity:1"
   inkscape:export-xdpi="600"
   inkscape:export-ydpi="600" /><g
   transform="matrix(0.3730616,0,0,0.37629466,135.37112,79.320835)"
   id="g3513"
   style="fill:#ffffff"
   inkscape:export-xdpi="600"
   inkscape:export-ydpi="600"><polygon
     style="fill:#ffffff"
     points="176,183.433 195,202.37 195,180 216.513,180 198.306,162 176,162 "
     id="polygon3-7" /><path
     inkscape:connector-curvature="0"
     style="fill:#ffffff"
     d="m 414.246,171.135 v 54.35 c -14.951,10.911 -37.782,18.386 -57.38,18.386 -42.833,0 -75.362,-31.113 -75.362,-72.129 0,-40.813 33.135,-71.725 77.182,-71.725 21.013,0 42.427,8.082 56.773,20.608 l -17.982,22.832 c -10.507,-9.698 -25.052,-15.76 -38.791,-15.76 -25.055,0 -44.451,19.194 -44.451,44.045 0,25.053 19.599,44.249 44.651,44.249 8.486,0 18.589,-3.031 27.681,-7.678 v -37.177 h 27.679 z"
     id="path10" /><path
     inkscape:connector-curvature="0"
     style="fill:#ffffff"
     d="m 442.129,242.456 v -141.43 h 31.922 v 141.43 z"
     id="path17" /><path
     inkscape:connector-curvature="0"
     style="fill:#ffffff"
     d="m 610.831,114.967 -12.324,26.467 c -14.951,-8.89 -32.731,-14.547 -44.045,-14.547 -10.708,0 -17.981,3.839 -17.981,11.517 0,26.064 75.362,11.517 75.16,62.431 0,27.68 -24.045,42.631 -55.36,42.631 -23.236,0 -46.471,-8.89 -62.431,-22.427 l 12.728,-26.063 c 14.548,12.932 35.155,21.215 50.106,21.215 13.134,0 21.013,-4.849 21.013,-13.537 0,-26.669 -75.362,-11.112 -75.362,-61.219 0,-25.659 22.023,-41.823 54.755,-41.823 19.8,-10e-4 39.599,6.061 53.741,15.355 z"
     id="path24" /><polygon
     style="fill:#ffffff"
     points="240.782,248 264,248 264,226.946 225.617,189 204,189 204,211.34 "
     id="polygon31-5" /><path
     inkscape:connector-curvature="0"
     style="fill:#ffffff"
     d="m 198.052,216.864 c -3.259,0.75 -6.648,1.157 -10.144,1.157 -25.005,0 -46.271,-20.562 -46.271,-47.222 0,-26.66 21.032,-46.769 46.271,-46.769 25.239,0 45.336,20.108 45.336,46.769 0,4.336 -0.54,8.508 -1.539,12.46 l 23.144,23.14 c 5.967,-10.455 9.305,-22.611 9.305,-35.778 0,-41.09 -32.791,-71.856 -76.714,-71.856 -43.722,0 -76.512,30.564 -76.512,71.856 0,41.494 32.791,72.666 76.512,72.666 11.287,0 21.835,-2.076 31.284,-5.854 z"
     id="path40-3" /><path
     d="m 176,162 88,86 V 226.94531 L 225.61719,189 l -9.10352,-9 -18.20703,-18 z"
     id="polygon4174-5"
     style="fill:#ffffff;fill-opacity:0.172549"
     inkscape:connector-curvature="0"
     sodipodi:nodetypes="ccccccc" /></g><text
   xml:space="preserve"
   style="font-style:normal;font-weight:normal;font-size:37.2998px;line-height:1.25;font-family:sans-serif;letter-spacing:0px;word-spacing:0px;fill:#ffffff;fill-opacity:1;stroke:none;stroke-width:1.1584;stroke-miterlimit:4;stroke-dasharray:none"
   x="177.19911"
   y="47.654732"
   id="text934"
   transform="scale(1.0091526,0.99093042)"
   inkscape:export-xdpi="600"
   inkscape:export-ydpi="600"><tspan
     sodipodi:role="line"
     x="177.19911"
     y="47.654732"
     id="tspan936"
     style="font-style:normal;font-variant:normal;font-weight:bold;font-stretch:normal;font-size:49.7329px;font-family:Ubuntu;-inkscape-font-specification:'Ubuntu Bold';stroke-width:1.1584;stroke-miterlimit:4;stroke-dasharray:none"><tspan
   style="stroke:#ffffff;stroke-width:1.1584;stroke-miterlimit:4;stroke-dasharray:none;stroke-opacity:1"
   id="tspan981">Creado</tspan> </tspan></text><text
   xml:space="preserve"
   style="font-style:normal;font-weight:normal;font-size:39.6051px;line-height:1.25;font-family:sans-serif;letter-spacing:0px;word-spacing:0px;fill:#ffffff;fill-opacity:1;stroke:none;stroke-width:1.78224;stroke-miterlimit:4;stroke-dasharray:none"
   x="242.90211"
   y="101.94663"
   id="text934-9"
   transform="scale(1.0562991,0.94670155)"
   inkscape:export-xdpi="600"
   inkscape:export-ydpi="600"><tspan
     sodipodi:role="line"
     x="242.90211"
     y="101.94663"
     id="tspan936-1"
     style="font-style:normal;font-variant:normal;font-weight:bold;font-stretch:normal;font-size:52.8069px;font-family:Ubuntu;-inkscape-font-specification:'Ubuntu Bold';stroke-width:1.78224;stroke-miterlimit:4;stroke-dasharray:none"><tspan
       style="stroke:#ffffff;stroke-width:1.78224;stroke-miterlimit:4;stroke-dasharray:none;stroke-opacity:1"
       id="tspan958-2">con</tspan></tspan></text><path
   clip-path="url(#clipPath1059)"
   id="path121"
   d="M 19.944306,35.968442 C 17.558688,35.624606 15.512542,34.797935 13.527479,33.375943 12.985516,32.987716 11.491017,31.563117 11.096106,31.058374 9.5076897,29.02798 8.6134381,26.925269 8.3451972,24.589938 c -0.086906,-0.756475 -0.07455,-2.184494 0.02534,-2.958636 0.2917415,-2.256175 1.2197404,-4.455413 2.6355518,-6.245979 1.28679,-1.627403 2.957014,-2.936012 4.909691,-3.846696 1.246165,-0.581185 2.261019,-0.896269 3.587468,-1.113788 0.940747,-0.154266 3.072073,-0.19388 4.08889,-0.076 2.147117,0.248915 4.101545,0.955398 5.92328,2.141071 3.04865,1.984241 5.024029,4.904314 5.741009,8.486609 0.138124,0.689976 0.169767,3.175317 0.05093,3.992017 -0.106011,0.728405 -0.42463,1.943678 -0.690549,2.633929 -0.43961,1.141201 -1.382649,2.739895 -2.110072,3.577093 -0.373134,0.429455 -1.091103,1.144188 -1.603418,1.59618 -1.966005,1.734591 -4.563801,2.858476 -7.435455,3.216882 -0.886009,0.110575 -2.673823,0.0983 -3.52366,-0.02433 z m 1.534887,-0.710524 c 0.01451,-0.33568 0.01088,-0.682773 -0.0081,-0.771278 -0.03372,-0.157147 -0.04314,-0.161845 -0.404259,-0.200567 -0.203357,-0.02178 -0.464212,-0.03304 -0.579669,-0.02535 -0.205874,0.01409 -0.211004,0.01918 -0.265999,0.267249 -0.04457,0.201024 -0.07779,0.252889 -0.161946,0.252889 -0.09397,0 -0.105204,-0.03202 -0.100016,-0.286526 0.01001,-0.484884 -0.02322,-0.466188 0.752353,-0.425406 0.371878,0.01972 0.759815,0.05202 0.862077,0.07235 l 0.185933,0.03663 0.0146,0.852922 0.01461,0.852918 0.729127,-0.03318 c 0.401021,-0.01815 0.980136,-0.06741 1.286927,-0.109284 0.529641,-0.07213 1.115595,-0.204443 1.115595,-0.251829 0,-0.119433 -0.346859,-1.36938 -0.396596,-1.429171 -0.01073,-0.01305 -0.428014,0.05281 -0.919508,0.14476 l -0.280195,0.05248 0.03402,0.244103 c 0.03029,0.21731 0.02117,0.250684 -0.08294,0.303713 -0.06433,0.03278 -0.126827,0.0502 -0.138889,0.03868 -0.01206,-0.01152 -0.03704,-0.190843 -0.05547,-0.39857 l -0.03356,-0.377668 0.763907,-0.112261 c 0.420148,-0.06172 0.801905,-0.111814 0.848346,-0.111253 0.109485,0.0025 0.159568,0.112114 0.366961,0.812124 0.229085,0.773248 0.229778,0.774322 0.469558,0.731714 0.616745,-0.109562 2.611769,-0.917195 2.611769,-1.057277 0,-0.04275 -0.145974,-0.351604 -0.32439,-0.686303 -0.222385,-0.417171 -0.352718,-0.608511 -0.414512,-0.608511 -0.110722,0 -0.935864,0.375466 -0.982262,0.446955 -0.01845,0.02842 -0.0038,0.156888 0.03218,0.285544 0.05574,0.198414 0.05385,0.241028 -0.01252,0.280925 -0.128793,0.0775 -0.178791,0.03042 -0.300804,-0.283881 -0.147833,-0.380645 -0.148049,-0.411639 -0.0033,-0.455067 0.06574,-0.01972 0.408397,-0.157799 0.761462,-0.306885 0.35305,-0.14905 0.664509,-0.271031 0.692125,-0.271031 0.02758,0 0.215336,0.273384 0.417174,0.60752 0.201842,0.334127 0.411342,0.652819 0.465561,0.708232 0.09383,0.09588 0.106792,0.09674 0.268996,0.01727 0.521225,-0.254989 2.268764,-1.512637 2.268764,-1.632742 0,-0.06786 -1.014049,-1.116512 -1.078493,-1.11533 -0.07042,0.0025 -0.849528,0.632707 -0.879122,0.71248 -0.01021,0.02746 0.04664,0.139839 0.126416,0.249427 0.119403,0.164045 0.133279,0.212747 0.07852,0.275575 -0.111473,0.127866 -0.178441,0.08879 -0.383881,-0.224122 l -0.197205,-0.300348 0.51535,-0.42028 c 0.283431,-0.231144 0.576674,-0.469663 0.651639,-0.530048 l 0.136282,-0.109802 0.654579,0.580134 c 0.37824,0.335223 0.690443,0.573572 0.739527,0.564564 0.166752,-0.03048 1.814525,-2.064663 1.814525,-2.23993 0,-0.125837 -1.220935,-0.814626 -1.356312,-0.765178 -0.102598,0.03761 -0.609252,0.739293 -0.609252,0.843928 0,0.0485 0.08964,0.158772 0.19921,0.244891 0.190345,0.149607 0.194743,0.159852 0.0989,0.230529 -0.118055,0.08706 -0.187089,0.05898 -0.473432,-0.192814 l -0.201879,-0.177486 0.462487,-0.660981 c 0.254375,-0.363538 0.494939,-0.660978 0.534569,-0.660978 0.03967,0 0.394755,0.173048 0.789105,0.384537 0.394349,0.211508 0.751938,0.371784 0.794639,0.356186 0.167805,-0.06122 1.196305,-2.227006 1.196305,-2.519071 0,-0.156672 -0.175926,-0.241263 -0.883263,-0.424714 l -0.519247,-0.134683 -0.0926,0.108869 c -0.08676,0.101991 -0.267648,0.509627 -0.366649,0.826229 -0.04089,0.130857 -0.02692,0.148071 0.218406,0.266372 0.27085,0.130666 0.323186,0.206791 0.178482,0.259649 -0.108714,0.0397 -0.459046,-0.06103 -0.603111,-0.173372 l -0.112733,-0.08792 0.234555,-0.657488 c 0.304974,-0.854864 0.295032,-0.83451 0.407453,-0.83451 0.0532,0 0.407094,0.06835 0.786416,0.15174 0.379328,0.08344 0.74021,0.15172 0.802004,0.15172 0.150844,0 0.197962,-0.133336 0.348432,-0.986226 0.175663,-0.995563 0.248523,-1.749236 0.177072,-1.831213 -0.04175,-0.04786 -0.259917,-0.0653 -0.813546,-0.0653 H 33.5939 l -0.03378,0.234638 c -0.01868,0.129053 -0.03377,0.379145 -0.03377,0.55574 v 0.321078 l 0.205174,0.03123 c 0.281827,0.04278 0.344421,0.0881 0.301271,0.217532 -0.03377,0.101348 -0.05962,0.106315 -0.39084,0.07527 -0.195058,-0.01818 -0.364147,-0.04114 -0.375727,-0.05051 -0.02387,-0.01971 0.08951,-1.337432 0.133473,-1.54929 l 0.02894,-0.139089 h 0.907004 0.906991 l -0.03302,-0.543658 c -0.03761,-0.616064 -0.172641,-1.670985 -0.267163,-2.086232 -0.05044,-0.221596 -0.0863,-0.281302 -0.17633,-0.293634 -0.166587,-0.0228 -1.30291,0.231089 -1.385297,0.309537 -0.05887,0.05609 -0.05563,0.15354 0.0192,0.582042 l 0.08979,0.51473 h 0.310596 c 0.273335,0 0.310606,0.01204 0.310606,0.09936 0,0.142848 -0.174485,0.211525 -0.492989,0.194034 L 33.340616,21.98551 33.19654,21.328035 c -0.07926,-0.361633 -0.144999,-0.717328 -0.146107,-0.790452 -0.0026,-0.157735 0.03455,-0.174695 0.912811,-0.419237 0.72974,-0.203182 0.732011,-0.204268 0.732011,-0.349919 0,-0.369904 -0.935689,-2.562316 -1.09355,-2.562316 -0.10419,0 -1.143818,0.474239 -1.287322,0.587229 l -0.123101,0.09688 0.247357,0.470443 c 0.136063,0.258747 0.278321,0.481745 0.316128,0.495564 0.03775,0.01379 0.157746,-0.01028 0.26653,-0.05356 0.221653,-0.08818 0.292731,-0.0694 0.292731,0.07712 0,0.07053 -0.07157,0.129177 -0.243461,0.199316 -0.444909,0.181504 -0.44235,0.183378 -0.837542,-0.611205 -0.194399,-0.390816 -0.352897,-0.726504 -0.352266,-0.746012 0.002,-0.01951 0.335418,-0.214173 0.743953,-0.432594 0.40852,-0.218431 0.756572,-0.418386 0.773426,-0.444353 0.06511,-0.100313 -1.040447,-1.606678 -1.622226,-2.21037 L 31.56426,14.41495 31.004741,14.933213 c -0.30772,0.285032 -0.55921,0.554559 -0.558845,0.598929 0.0012,0.04437 0.17003,0.246546 0.377034,0.449276 l 0.376372,0.368585 0.234645,-0.130904 c 0.242902,-0.135524 0.339967,-0.130864 0.338576,0.01621 -0.0025,0.0967 -0.517016,0.478699 -0.589298,0.436174 -0.02585,-0.01514 -0.288532,-0.300812 -0.583845,-0.634725 l -0.536919,-0.607112 0.589801,-0.574645 c 0.356266,-0.347101 0.589826,-0.615011 0.589826,-0.676585 0,-0.210368 -2.270823,-1.913903 -2.392147,-1.794549 -0.02381,0.02338 -0.223455,0.314505 -0.443603,0.646799 l -0.400239,0.604149 0.489122,0.340854 0.489113,0.340852 0.225934,-0.209692 c 0.21045,-0.195336 0.231964,-0.203954 0.31406,-0.125807 0.08208,0.07815 0.0724,0.103309 -0.141343,0.367063 -0.126209,0.15574 -0.25559,0.273418 -0.287496,0.261494 -0.141245,-0.05274 -1.359584,-0.912002 -1.359584,-0.958871 0,-0.02871 0.181096,-0.366491 0.402434,-0.750657 0.225443,-0.39134 0.385546,-0.724492 0.364043,-0.757591 -0.07727,-0.119049 -2.517599,-1.15735 -2.720104,-1.15735 -0.09599,0 -0.578645,1.371127 -0.516399,1.467006 0.03615,0.05567 0.910245,0.353704 1.037392,0.353704 0.06719,0 0.141551,-0.07391 0.216256,-0.214952 0.140903,-0.265995 0.122264,-0.248613 0.226,-0.210712 0.048,0.01763 0.08729,0.06506 0.08729,0.105609 0,0.06038 -0.195786,0.55258 -0.245074,0.616124 -0.03295,0.04249 -1.667261,-0.512489 -1.666099,-0.56578 7.69e-4,-0.03252 0.09482,-0.410605 0.209148,-0.840293 0.114324,-0.429682 0.197198,-0.797674 0.184175,-0.817751 -0.06005,-0.0925 -1.643678,-0.342704 -2.418213,-0.382075 l -0.615831,-0.03132 -0.03494,0.318199 c -0.01923,0.175007 -0.03494,0.517372 -0.03494,0.760822 v 0.442625 l 0.358584,0.03096 c 0.504078,0.04351 0.803712,0.05329 0.828212,0.02701 0.01154,-0.01242 0.0424,-0.111207 0.06858,-0.219684 0.05235,-0.216843 0.192366,-0.341272 0.284891,-0.253184 0.03888,0.03705 0.03525,0.15128 -0.01211,0.378177 l -0.06783,0.325121 -0.424711,-0.0089 c -0.23359,-0.0049 -0.621932,-0.02394 -0.86298,-0.04248 l -0.438271,-0.03357 -0.0023,-0.463288 c -0.0033,-0.633099 -0.07753,-1.199435 -0.164919,-1.256376 -0.166616,-0.108573 -2.64741,0.15487 -2.907752,0.308786 -0.06167,0.03649 -0.06271,0.09925 -0.0064,0.390323 0.03689,0.190773 0.124845,0.523414 0.195481,0.739204 0.115039,0.351517 0.140578,0.389981 0.245477,0.369645 0.0644,-0.01254 0.28444,-0.0488 0.488961,-0.08072 0.588584,-0.09183 0.5578,-0.07071 0.5578,-0.382812 0,-0.202418 0.02189,-0.284357 0.08198,-0.306294 0.04508,-0.01659 0.09413,-0.01828 0.108992,-0.0043 0.04569,0.04349 0.145801,0.694529 0.111787,0.726914 -0.01764,0.01662 -0.404646,0.0902 -0.86012,0.163233 -0.709828,0.113816 -0.83487,0.122405 -0.875311,0.06012 -0.02586,-0.03997 -0.120807,-0.335683 -0.210794,-0.657154 -0.08999,-0.32151 -0.194057,-0.641429 -0.231263,-0.710966 -0.0915,-0.171006 -0.281747,-0.18343 -0.716942,-0.04682 -0.52546,0.164941 -1.929649,0.741294 -2.083228,0.855066 l -0.13281,0.09838 0.197859,0.368536 c 0.108833,0.202699 0.283177,0.498173 0.38745,0.656614 l 0.18957,0.288074 0.236764,-0.09842 c 0.878421,-0.365149 0.841198,-0.334993 0.742444,-0.60147 -0.110645,-0.298547 -0.102758,-0.356739 0.04838,-0.356739 0.107798,0 0.147096,0.04602 0.239057,0.280064 0.06059,0.154031 0.109104,0.307659 0.107909,0.341382 -0.0025,0.03373 -0.350408,0.217985 -0.776063,0.409461 -0.619169,0.27853 -0.783188,0.334144 -0.820411,0.278163 -0.02557,-0.03849 -0.230603,-0.360146 -0.455561,-0.714808 -0.228126,-0.359671 -0.443744,-0.644837 -0.487554,-0.644837 -0.171159,0 -0.959139,0.505453 -1.814449,1.163873 -0.277588,0.213697 -0.535263,0.423597 -0.572628,0.466446 -0.05794,0.06642 0.01071,0.158856 0.465923,0.627264 0.293588,0.302146 0.557067,0.549358 0.585482,0.549358 0.06605,0 0.830684,-0.635559 0.871436,-0.72433 0.01675,-0.03676 -0.02894,-0.141333 -0.101941,-0.232365 -0.159281,-0.198788 -0.171675,-0.332981 -0.03095,-0.332981 0.08619,0 0.209716,0.121867 0.493037,0.486338 0.02842,0.03634 -0.158911,0.225562 -0.525208,0.531044 -0.312993,0.261026 -0.612706,0.504755 -0.666045,0.541616 -0.08725,0.0603 -0.161342,0.0084 -0.738792,-0.518399 -0.353018,-0.321982 -0.660256,-0.585418 -0.68278,-0.585418 -0.06074,0 -0.699374,0.655813 -1.072953,1.101938 -0.331094,0.395397 -0.840183,1.106062 -0.840183,1.17286 0,0.04484 0.804731,0.558174 1.099472,0.701326 l 0.214726,0.104293 0.105011,-0.11145 c 0.0577,-0.06129 0.219532,-0.266623 0.359502,-0.456281 l 0.254477,-0.344827 -0.193179,-0.188345 c -0.208449,-0.203231 -0.244863,-0.310518 -0.105414,-0.310518 0.126856,0 0.546138,0.314041 0.548082,0.410498 0.0025,0.04496 -0.157295,0.306696 -0.351544,0.581619 -0.497932,0.704707 -0.514247,0.72429 -0.60304,0.724118 -0.04379,-9.6e-5 -0.401041,-0.169216 -0.793803,-0.375844 -0.583734,-0.307097 -0.728493,-0.36449 -0.792895,-0.314353 -0.163576,0.127345 -0.9848581,1.872555 -1.1970974,2.543817 -0.030494,0.09647 0.017628,0.119663 0.565083,0.273009 0.3291483,0.09219 0.6940604,0.1777 0.8109414,0.190035 l 0.212489,0.02236 0.178711,-0.497757 c 0.0983,-0.273768 0.177762,-0.519131 0.176584,-0.545254 -0.0025,-0.02613 -0.105504,-0.08596 -0.231844,-0.133 -0.126326,-0.047 -0.227317,-0.110998 -0.224395,-0.14216 0.01306,-0.138328 0.02635,-0.157811 0.107037,-0.157811 0.146351,0 0.604787,0.264576 0.60545,0.349423 0.0025,0.06785 -0.468128,1.409988 -0.511228,1.464126 -0.0076,0.01001 -0.374942,-0.06551 -0.8155519,-0.167742 -0.4406211,-0.102224 -0.8544039,-0.17865 -0.9194928,-0.169842 -0.1019283,0.01378 -0.1308732,0.07217 -0.2085477,0.420616 -0.1151424,0.516422 -0.3087413,1.900992 -0.308462,2.205797 l 1.881e-4,0.233357 0.2464745,0.03203 c 0.1355475,0.01767 0.5025878,0.03201 0.8156236,0.03201 h 0.5691492 l 0.03445,-0.386946 c 0.0187,-0.212823 0.03445,-0.474283 0.03445,-0.581023 0,-0.186155 -0.0081,-0.195348 -0.205174,-0.225307 -0.2714842,-0.04124 -0.3493763,-0.09204 -0.3061477,-0.199322 0.030915,-0.07638 0.081899,-0.08328 0.3911227,-0.05306 0.195637,0.01919 0.364497,0.0431 0.375228,0.05327 0.01061,0.01016 -0.02178,0.395981 -0.07257,0.857251 l -0.09211,0.838677 H 9.3739758 c -0.920744,0 -0.9217112,9.9e-5 -0.9206157,0.113798 0.0047,0.52036 0.2907173,2.645685 0.3726651,2.771915 0.026878,0.04168 0.1870059,0.02819 0.583688,-0.04889 0.9498848,-0.184439 0.9549978,-0.186459 0.9549978,-0.37661 0,-0.150708 -0.06682,-0.583324 -0.136687,-0.885304 -0.02633,-0.113064 -0.04274,-0.117518 -0.3173192,-0.08485 L 9.6209899,24.6474 v -0.148018 c 0,-0.145774 0.00559,-0.148539 0.3552278,-0.179635 0.1953713,-0.01719 0.3639463,-0.02329 0.3745933,-0.01306 0.02277,0.02177 0.332654,1.490081 0.332654,1.576156 0,0.03208 -0.23309,0.120072 -0.517963,0.195283 -1.0364759,0.273605 -1.1819879,0.329492 -1.1819879,0.453957 0,0.147239 0.1822518,0.651912 0.5313866,1.471425 0.3844698,0.902466 0.5140843,1.137955 0.6263013,1.137955 0.05146,0 0.367738,-0.145981 0.702997,-0.3244 0.514523,-0.27382 0.607402,-0.341824 0.595728,-0.436196 -0.01972,-0.158746 -0.420768,-0.958979 -0.480724,-0.958979 -0.02742,0 -0.152802,0.03457 -0.278583,0.07682 -0.182685,0.06131 -0.237307,0.06385 -0.271436,0.01255 -0.02334,-0.03521 -0.03584,-0.0869 -0.0274,-0.114743 0.02354,-0.07777 0.360784,-0.222106 0.556961,-0.238346 l 0.175568,-0.0146 0.3435,0.701618 c 0.255646,0.522192 0.328881,0.718351 0.286422,0.767067 -0.03149,0.0361 -0.367008,0.240899 -0.745842,0.455367 -0.378834,0.214452 -0.69911,0.405818 -0.711742,0.425269 -0.05761,0.0886 1.231193,1.798828 1.632692,2.166755 l 0.181777,0.16658 0.313824,-0.226018 c 0.172599,-0.124303 0.442876,-0.340333 0.600623,-0.480056 l 0.286815,-0.254036 -0.09546,-0.141715 c -0.154352,-0.229111 -0.633341,-0.76768 -0.685642,-0.77093 -0.02635,-0.0025 -0.122074,0.04994 -0.212491,0.11441 -0.265331,0.189458 -0.288309,0.195239 -0.348776,0.08769 -0.04787,-0.08495 -0.03044,-0.12379 0.10834,-0.241657 0.09089,-0.0772 0.229944,-0.17954 0.309036,-0.227368 l 0.143776,-0.08691 0.571324,0.635162 0.57133,0.635175 -0.613608,0.601592 c -0.337499,0.330868 -0.613626,0.62824 -0.613626,0.660823 0,0.12211 1.171327,1.071242 1.961683,1.589557 l 0.423511,0.277748 0.178899,-0.267085 c 0.41982,-0.626763 0.633074,-1.004466 0.605597,-1.072602 -0.0279,-0.06887 -0.725148,-0.564474 -0.875843,-0.62245 -0.03868,-0.01477 -0.164048,0.06021 -0.278812,0.166986 -0.154929,0.144032 -0.224104,0.179296 -0.268617,0.136933 -0.116285,-0.110719 0.350316,-0.671082 0.494127,-0.593411 0.321352,0.173563 1.265624,0.863745 1.265624,0.925061 0,0.04276 -0.167353,0.366651 -0.371863,0.720004 -0.204541,0.353362 -0.371872,0.677496 -0.371872,0.72031 0,0.183973 2.546061,1.268551 2.77855,1.183621 0.06579,-0.02387 0.35661,-0.871009 0.440836,-1.28371 l 0.03262,-0.16024 -0.511086,-0.155859 c -0.281112,-0.08575 -0.547514,-0.155859 -0.592042,-0.155859 -0.04531,0 -0.125914,0.0999 -0.183055,0.226821 -0.07398,0.164278 -0.124719,0.218566 -0.18405,0.19689 -0.04505,-0.01666 -0.08192,-0.08376 -0.08192,-0.149602 0,-0.125722 0.209305,-0.577561 0.267553,-0.577561 0.0405,0 1.608739,0.505044 1.629426,0.524742 0.0079,0.0076 -0.08073,0.364776 -0.196963,0.793903 -0.116226,0.429132 -0.211587,0.796508 -0.21193,0.81639 -0.0015,0.01972 0.04247,0.05814 0.09514,0.08494 0.232674,0.118543 2.029898,0.396313 2.619533,0.404856 l 0.351291,0.0049 z m 0.871641,0.142536 c -0.01764,-0.06264 -0.03237,-0.241157 -0.03275,-0.396829 -3.03e-4,-0.155668 -0.01621,-0.490467 -0.0351,-0.744005 l -0.03437,-0.460978 -0.217968,-0.02477 c -0.583835,-0.066 -2.32695,-0.188401 -2.351425,-0.165103 -0.03202,0.03048 -0.202859,0.765246 -0.251753,1.082975 -0.04854,0.315429 0.05153,0.386611 0.653632,0.464939 0.269784,0.03507 0.501853,0.05298 0.515691,0.03977 0.01383,-0.01304 0.0394,-0.112108 0.0568,-0.219867 0.03795,-0.234799 0.10203,-0.322367 0.23592,-0.322367 0.08889,0 0.09974,0.04225 0.09974,0.387041 v 0.387048 l -0.571082,-0.03168 c -0.515309,-0.02856 -1.051901,-0.09749 -1.30153,-0.166963 -0.129625,-0.03612 -0.119579,-0.186873 0.06639,-0.996991 0.08765,-0.381799 0.159378,-0.702972 0.159378,-0.713709 0,-0.01071 -0.340652,-0.127325 -0.757008,-0.259055 -0.416361,-0.131721 -0.948258,-0.316283 -1.182011,-0.410116 l -0.424971,-0.170603 -0.108576,0.128147 c -0.05964,0.07042 -0.225308,0.354051 -0.367997,0.630162 -0.212713,0.411569 -0.24761,0.515597 -0.193742,0.5774 0.0708,0.08116 0.913575,0.487657 1.011112,0.487657 0.0325,0 0.111261,-0.10242 0.175156,-0.227595 0.09684,-0.189782 0.141008,-0.22758 0.265934,-0.22758 0.136493,0 0.146686,0.01254 0.114752,0.139074 -0.01919,0.07652 -0.08157,0.25948 -0.138424,0.406621 -0.0907,0.234664 -0.117514,0.263356 -0.218306,0.233521 -0.209603,-0.06213 -1.601502,-0.636935 -1.651835,-0.682216 -0.02994,-0.02691 0.100934,-0.335313 0.332013,-0.782079 0.209809,-0.405681 0.381474,-0.768049 0.381474,-0.805271 0,-0.03712 -0.237101,-0.206394 -0.526896,-0.375941 -0.289795,-0.169532 -0.758434,-0.482352 -1.041434,-0.695125 l -0.514526,-0.386887 -0.299938,0.318722 c -0.442228,0.469915 -0.697152,0.804701 -0.665509,0.874041 0.03049,0.06679 0.613009,0.536985 0.800422,0.646128 0.107139,0.0623 0.132354,0.05024 0.325076,-0.156519 0.182677,-0.195982 0.219804,-0.215546 0.295579,-0.155692 0.04771,0.03761 0.08665,0.08855 0.08665,0.113131 0,0.07223 -0.393898,0.65101 -0.443068,0.65101 -0.06117,0 -0.950312,-0.648271 -1.307871,-0.953644 l -0.290058,-0.247704 0.59551,-0.605802 c 0.327536,-0.333195 0.595375,-0.626168 0.595192,-0.651069 -1.55e-4,-0.02486 -0.218035,-0.284237 -0.484155,-0.576321 -0.26611,-0.29207 -0.625781,-0.707607 -0.799252,-0.923398 -0.365934,-0.455216 -0.253442,-0.462914 -1.097245,0.07508 l -0.54825,0.349547 0.092,0.135577 c 0.148636,0.219105 0.535577,0.691145 0.623472,0.760577 0.06715,0.05303 0.118221,0.04071 0.297068,-0.07197 0.177502,-0.111831 0.230245,-0.124796 0.296039,-0.07284 0.04403,0.03469 0.08007,0.09147 0.08007,0.125993 0,0.08949 -0.52225,0.543026 -0.583692,0.506886 -0.150531,-0.08859 -1.181223,-1.483786 -1.141423,-1.545102 0.01357,-0.021 0.341615,-0.225751 0.728854,-0.455003 0.38727,-0.229251 0.712449,-0.423471 0.722645,-0.431607 0.0146,-0.01153 -0.560192,-1.161755 -1.021617,-2.044625 -0.08902,-0.17029 -0.299352,-0.159131 -0.889612,0.04727 -0.6910006,0.241522 -0.6672472,0.205347 -0.4718652,0.71946 0.2388002,0.628241 0.2450972,0.634221 0.5523892,0.522515 0.268971,-0.0978 0.377055,-0.06335 0.342292,0.108939 -0.01971,0.09741 -0.484053,0.368786 -0.634684,0.370861 -0.06101,0.0025 -0.163364,-0.185738 -0.3531821,-0.643654 -0.3970613,-0.957987 -0.4168256,-1.02822 -0.3098152,-1.102732 0.048877,-0.03407 0.3567664,-0.143514 0.6843983,-0.243478 0.327634,-0.09996 0.649481,-0.217623 0.715223,-0.261463 0.148277,-0.09886 0.14971,-0.202573 0.01204,-0.877351 -0.05896,-0.288868 -0.143258,-0.75423 -0.187395,-1.034132 -0.04427,-0.279903 -0.09163,-0.519701 -0.105474,-0.532895 -0.04052,-0.03867 -1.4689169,0.08326 -1.5118525,0.128911 -0.037148,0.0397 0.011523,0.672392 0.078018,1.012123 0.031513,0.160679 0.033061,0.161395 0.3352586,0.151722 0.2909711,-0.0095 0.3036204,-0.0034 0.3036204,0.116363 0,0.109754 -0.034541,0.133685 -0.2656077,0.184801 C 9.1932036,25.532154 9.15319,25.523375 9.09454,25.310518 9.0327092,25.085931 8.8546496,23.68397 8.8844127,23.655635 c 0.011504,-0.01081 0.4147185,-0.04531 0.896421,-0.07704 0.4817473,-0.03149 0.8917113,-0.07299 0.9110643,-0.09208 0.01919,-0.01921 0.06122,-0.444346 0.09324,-0.945046 0.032,-0.500698 0.07257,-1.029421 0.09037,-1.17495 0.03867,-0.318058 0.05248,-0.310283 -0.835064,-0.471952 -0.4842753,-0.08822 -0.6007226,-0.09572 -0.6362297,-0.04118 -0.0687,0.105816 -0.1642112,0.71937 -0.1456139,0.935336 0.016139,0.186946 0.028417,0.198921 0.255979,0.251162 0.1795239,0.04122 0.2390578,0.07883 0.2390578,0.151224 0,0.109125 -0.1656232,0.157633 -0.5710808,0.167245 -0.2507301,0.0064 -0.2523283,0.0046 -0.2514984,-0.158377 0.00255,-0.17922 0.2415065,-1.752493 0.2723376,-1.781112 0.010514,-0.0097 0.387465,0.06095 0.8377974,0.156966 0.45036,0.09601 0.848137,0.16387 0.883928,0.150791 0.03579,-0.01305 0.100815,-0.122199 0.144483,-0.24248 0.12171,-0.335439 0.571072,-1.504199 0.68195,-1.773746 l 0.0988,-0.240096 -0.198384,-0.118672 c -0.256466,-0.153422 -1.186066,-0.551276 -1.217709,-0.52116 -0.04854,0.0463 -0.4415684,0.94652 -0.4415684,1.011576 0,0.03677 0.065779,0.09499 0.1460894,0.129289 0.326659,0.139441 0.389985,0.200755 0.319022,0.308933 -0.07955,0.121211 -0.124101,0.123068 -0.449993,0.01872 C 9.6256964,19.176664 9.6159632,19.16235 9.7085428,18.8588 c 0.074305,-0.243543 0.6499932,-1.450896 0.6918702,-1.450896 0.01046,0 0.352726,0.159317 0.761001,0.354033 0.408274,0.194713 0.775999,0.354026 0.817208,0.354026 0.0412,0 0.187558,-0.172129 0.32529,-0.382509 0.137731,-0.21038 0.452042,-0.641525 0.698424,-0.958097 0.52585,-0.67562 0.532283,-0.612331 -0.114433,-1.124144 -0.233731,-0.18498 -0.46439,-0.367543 -0.51254,-0.405672 -0.0776,-0.06144 -0.124703,-0.02737 -0.413783,0.299621 -0.426451,0.482324 -0.444166,0.556321 -0.186735,0.780786 0.186376,0.162528 0.195114,0.182138 0.115156,0.258267 -0.08,0.07612 -0.101838,0.07572 -0.288054,-0.0054 -0.110805,-0.04823 -0.270965,-0.141176 -0.355898,-0.206536 l -0.154426,-0.118839 0.203086,-0.269944 c 0.111697,-0.148472 0.391763,-0.49211 0.62236,-0.763637 l 0.419245,-0.493692 0.590805,0.511123 c 0.847195,0.73293 0.776971,0.705349 1.080591,0.424422 0.261072,-0.241559 0.992526,-0.836104 1.390305,-1.13006 0.124151,-0.09177 0.22574,-0.195318 0.22574,-0.230105 0,-0.08478 -0.69434,-1.042228 -0.802681,-1.106876 -0.06642,-0.03966 -0.175468,0.0081 -0.489069,0.214545 -0.555476,0.365583 -0.556603,0.367384 -0.388459,0.609321 0.163177,0.234721 0.168395,0.269088 0.05451,0.35908 -0.07392,0.05836 -0.119639,0.03286 -0.345297,-0.192348 -0.143083,-0.142799 -0.259946,-0.28977 -0.259711,-0.32661 0.0025,-0.115077 1.396427,-1.104824 1.555489,-1.103066 0.03552,7.7e-4 0.258164,0.290571 0.495022,0.644841 0.27229,0.407219 0.467887,0.649485 0.531819,0.658697 0.05557,0.0079 0.351851,-0.102616 0.65834,-0.245845 0.306476,-0.143244 0.772354,-0.350948 1.03532,-0.461581 0.613098,-0.25792 0.616368,-0.26066 0.548153,-0.460842 -0.171757,-0.50404 -0.432341,-1.147481 -0.464733,-1.147481 -0.08009,0 -0.626945,0.16652 -0.867028,0.264015 -0.274644,0.111538 -0.292081,0.154402 -0.173003,0.425749 0.08619,0.196314 0.07437,0.243462 -0.08103,0.322606 -0.09051,0.04612 -0.123138,0.01202 -0.289234,-0.301918 -0.102964,-0.194642 -0.187189,-0.363687 -0.187189,-0.375645 0,-0.02994 1.1824,-0.501403 1.53264,-0.61122 0.239765,-0.07517 0.295171,-0.07833 0.354144,-0.02022 0.03848,0.03792 0.170765,0.387593 0.294042,0.777024 0.123259,0.389436 0.238815,0.723639 0.256787,0.742671 0.01803,0.01913 0.30754,-0.02225 0.643542,-0.09178 0.336014,-0.06953 0.885831,-0.166011 1.221849,-0.214421 l 0.610917,-0.08804 -0.0028,-0.668137 c -0.0034,-0.859976 0.01473,-0.839692 -0.689776,-0.764908 -0.289659,0.03076 -0.543421,0.06578 -0.563915,0.07784 -0.02051,0.01203 -0.02414,0.143266 -0.0079,0.291583 0.02378,0.219183 0.01306,0.275568 -0.05704,0.301187 -0.155334,0.05674 -0.237795,-0.02024 -0.29529,-0.275395 -0.08813,-0.391224 -0.07515,-0.483722 0.07282,-0.519074 0.170909,-0.04083 1.496188,-0.181245 1.716641,-0.181861 l 0.172655,-0.0013 v 0.44758 c 0,0.246153 0.01538,0.62058 0.03413,0.832063 0.03222,0.362751 0.04198,0.386058 0.172651,0.411779 0.127775,0.02517 1.986994,0.18732 2.290018,0.199747 0.128653,0.0054 0.137344,-0.01596 0.277708,-0.677324 0.171301,-0.807196 0.19091,-0.769969 -0.453667,-0.861179 -0.598716,-0.08472 -0.630519,-0.07431 -0.698005,0.228549 -0.06503,0.291799 -0.202643,0.36488 -0.300817,0.159747 -0.07482,-0.156315 -0.01441,-0.686006 0.08221,-0.721315 0.08134,-0.02973 1.847194,0.225788 1.899408,0.27483 0.0201,0.01879 -0.04623,0.396785 -0.147414,0.839779 -0.144831,0.63407 -0.169564,0.81414 -0.116248,0.846229 0.03725,0.02234 0.378502,0.141538 0.758335,0.264707 0.37981,0.12322 0.885713,0.293367 1.124213,0.378157 0.33079,0.117637 0.445919,0.139716 0.485402,0.09313 0.112241,-0.132389 0.649759,-1.206135 0.623824,-1.246082 -0.03008,-0.04637 -0.994083,-0.458651 -1.072414,-0.458651 -0.0265,0 -0.09537,0.09673 -0.153058,0.214946 -0.102906,0.210927 -0.295681,0.311215 -0.397085,0.206585 -0.04754,-0.04904 0.137665,-0.620434 0.229847,-0.709126 0.06925,-0.06661 0.578297,0.104468 1.432334,0.481397 l 0.466863,0.206062 -0.168623,0.318476 c -0.09276,0.175175 -0.287603,0.519613 -0.433017,0.765432 -0.145414,0.24582 -0.243763,0.464449 -0.218554,0.485842 0.02526,0.02132 0.225132,0.14742 0.444271,0.280054 0.219134,0.132644 0.68118,0.43379 1.026782,0.669223 0.345601,0.235443 0.635799,0.420371 0.644871,0.41096 0.263481,-0.273055 0.984522,-1.083453 0.984522,-1.106511 0,-0.01759 -0.216909,-0.198773 -0.482006,-0.402788 l -0.481991,-0.370893 -0.202467,0.210869 c -0.219406,0.228535 -0.274603,0.249168 -0.370943,0.138662 -0.07815,-0.08964 0.01172,-0.270861 0.270937,-0.546134 l 0.177453,-0.188471 0.766331,0.580873 c 0.421482,0.319477 0.775381,0.589487 0.786441,0.600017 0.01101,0.01051 -0.264957,0.311833 -0.613375,0.669562 l -0.633466,0.650413 0.489144,0.505876 c 0.269044,0.278233 0.639488,0.687949 0.82324,0.910481 0.183756,0.222534 0.351952,0.41123 0.373768,0.419324 0.05074,0.01877 0.935142,-0.547082 1.131654,-0.724085 l 0.14883,-0.13393 -0.145156,-0.185198 c -0.294217,-0.375307 -0.562246,-0.6656 -0.614602,-0.6656 -0.02947,0 -0.143423,0.06757 -0.252954,0.15016 l -0.19914,0.150179 -0.119525,-0.121128 c -0.06574,-0.06662 -0.105811,-0.142262 -0.08904,-0.168094 0.01664,-0.02584 0.166086,-0.146559 0.331802,-0.268285 l 0.301342,-0.221322 0.231497,0.25046 c 0.213203,0.23067 0.975327,1.250514 0.975327,1.305147 0,0.01308 -0.334686,0.223328 -0.743735,0.467242 -0.409047,0.243945 -0.74372,0.463112 -0.74372,0.487074 0,0.02394 0.163267,0.356193 0.362829,0.738296 0.199549,0.382117 0.43132,0.85079 0.515045,1.041501 0.08371,0.190717 0.17919,0.356613 0.212164,0.368667 0.0668,0.02435 0.80724,-0.189009 1.171471,-0.337643 0.139884,-0.05711 0.235298,-0.129214 0.235298,-0.177877 0,-0.120711 -0.312355,-0.845321 -0.401535,-0.931479 -0.06731,-0.06499 -0.106968,-0.0633 -0.325204,0.01363 -0.196929,0.06947 -0.257411,0.07442 -0.291305,0.02354 -0.104968,-0.157426 -0.03907,-0.242462 0.322439,-0.415762 l 0.366842,-0.175865 0.264317,0.617779 c 0.341575,0.798332 0.459133,1.148261 0.402349,1.197627 -0.02522,0.02179 -0.388089,0.147425 -0.806563,0.279043 -0.466025,0.146585 -0.773258,0.270088 -0.792858,0.318695 -0.0177,0.04375 0.01047,0.263145 0.062,0.4877 0.05169,0.224568 0.14682,0.738324 0.211387,1.141656 l 0.117399,0.733358 0.262732,-0.01101 c 0.807828,-0.03353 1.190922,-0.07817 1.25002,-0.146017 0.07184,-0.08235 0.02943,-0.72134 -0.0648,-0.979002 -0.0534,-0.145671 -0.07137,-0.153712 -0.34329,-0.153712 -0.157837,0 -0.286982,-0.02076 -0.286982,-0.04637 0,-0.0254 -0.01356,-0.08021 -0.03042,-0.121574 -0.0233,-0.05814 0.05441,-0.09346 0.342529,-0.155867 0.472859,-0.102388 0.467285,-0.102782 0.503767,0.0356 0.02227,0.08414 0.246482,1.707602 0.246482,1.783978 0,0.0056 -0.304798,0.02434 -0.677335,0.04277 -0.372537,0.01818 -0.799167,0.04587 -0.948084,0.06156 l -0.27075,0.02841 -0.03611,0.816995 c -0.01972,0.449344 -0.05768,0.975915 -0.08421,1.170162 -0.03558,0.259941 -0.03151,0.36297 0.0146,0.390289 0.03454,0.02023 0.370862,0.108117 0.747424,0.194886 0.52886,0.121882 0.693932,0.143436 0.725532,0.09475 0.06003,-0.09242 0.178099,-1.034199 0.141172,-1.12581 -0.02022,-0.04994 -0.114358,-0.08389 -0.260203,-0.09392 -0.194239,-0.01341 -0.231349,-0.03353 -0.246451,-0.135314 -0.0099,-0.06581 0.0047,-0.141239 0.03254,-0.167659 0.05289,-0.0504 0.643363,-0.0071 0.748941,0.05592 0.100068,0.05889 -0.155723,1.72405 -0.279168,1.81727 -0.03611,0.0274 -0.370702,-0.01307 -0.850134,-0.103174 -0.434752,-0.08155 -0.820656,-0.1372 -0.857572,-0.123716 -0.03696,0.01356 -0.156627,0.282205 -0.266038,0.597159 -0.109391,0.31495 -0.291231,0.794989 -0.404084,1.066764 -0.112871,0.271775 -0.205207,0.524722 -0.205207,0.562108 0,0.05706 1.228667,0.638053 1.349158,0.638053 0.05364,0 0.452705,-0.81964 0.469784,-0.964911 0.01116,-0.09564 -0.03354,-0.139421 -0.238525,-0.233401 -0.138764,-0.06366 -0.252323,-0.134098 -0.252323,-0.156623 0,-0.07959 0.12906,-0.162333 0.253102,-0.162333 0.115598,0 0.649985,0.191398 0.649985,0.232806 0,0.08455 -0.672564,1.580971 -0.751669,1.672429 -0.03762,0.04359 -0.255708,-0.03349 -0.824297,-0.29081 -0.42517,-0.192538 -0.800322,-0.34976 -0.833655,-0.349402 -0.03337,0.0021 -0.180143,0.176207 -0.326241,0.390773 -0.146081,0.214565 -0.464526,0.646255 -0.707649,0.959312 -0.243105,0.313058 -0.428661,0.589777 -0.412336,0.614925 0.05839,0.08991 1.081755,0.917145 1.134626,0.917145 0.07271,0 0.702528,-0.808287 0.702528,-0.901603 0,-0.04071 -0.08919,-0.147301 -0.1982,-0.237017 -0.1728,-0.142239 -0.18898,-0.173716 -0.126304,-0.24562 0.101729,-0.116685 0.193708,-0.103426 0.450816,0.06495 0.400192,0.262138 0.401361,0.240525 -0.04249,0.795691 -0.219091,0.274037 -0.491072,0.599511 -0.604411,0.723267 l -0.205979,0.225041 -0.154627,-0.114999 c -0.08494,-0.06325 -0.388464,-0.320617 -0.674413,-0.571937 l -0.519876,-0.456916 -0.40977,0.35064 c -0.225376,0.192859 -0.668212,0.550862 -0.984071,0.795561 -0.389538,0.301781 -0.564646,0.46887 -0.544315,0.519351 0.06936,0.172043 0.795148,1.127168 0.856537,1.127168 0.07471,0 0.892078,-0.564134 0.952748,-0.657572 0.02276,-0.03508 -0.04058,-0.136865 -0.154249,-0.247721 l -0.192935,-0.188104 0.13875,-0.123427 0.138713,-0.123427 0.232959,0.25288 c 0.128112,0.139082 0.23343,0.300536 0.234038,0.358789 0.0023,0.07648 -0.157699,0.218011 -0.569977,0.509069 -0.729821,0.51523 -0.895791,0.624122 -0.951139,0.624042 -0.02481,-2.9e-5 -0.228678,-0.278831 -0.453272,-0.619544 -0.224593,-0.340734 -0.440294,-0.660471 -0.47934,-0.71054 -0.06649,-0.08526 -0.131744,-0.06334 -1.025993,0.343878 -0.525236,0.239207 -1.038651,0.473993 -1.140919,0.521744 -0.214914,0.100344 -0.217915,0.148063 -0.04199,0.666822 0.195801,0.577386 0.2939,0.758639 0.410578,0.758639 0.11609,0 0.894982,-0.282369 0.99385,-0.360297 0.04534,-0.03562 0.03909,-0.112918 -0.0244,-0.30212 -0.0745,-0.221778 -0.07548,-0.260048 -0.0078,-0.300789 0.04267,-0.02584 0.101483,-0.03995 0.130695,-0.03171 0.05913,0.01663 0.394588,0.583824 0.396942,0.671159 0.0025,0.06171 -1.453471,0.620362 -1.72501,0.662313 l -0.172035,0.02676 -0.11714,-0.372224 c -0.369707,-1.174803 -0.382014,-1.20669 -0.46555,-1.20669 -0.04636,0 -0.373618,0.05766 -0.727234,0.128293 -0.353614,0.07052 -0.881856,0.156853 -1.173869,0.191762 -0.449303,0.05364 -0.533917,0.07817 -0.550332,0.159356 -0.01067,0.05274 -0.0023,0.377736 0.01856,0.722221 0.02848,0.469958 0.0568,0.633217 0.113526,0.653937 0.04157,0.01512 0.327553,0.01123 0.635518,-0.0087 l 0.559941,-0.03614 -0.01283,-0.263693 c -0.007,-0.145012 0.0048,-0.290668 0.02608,-0.323639 0.05741,-0.0884 0.228583,-0.07289 0.267771,0.02433 0.06688,0.165924 0.0977,0.66005 0.04317,0.692144 -0.04897,0.02893 -1.617932,0.235035 -1.788146,0.235035 -0.03929,0 -0.08588,-0.05121 -0.103491,-0.113804 z m 0.311822,-1.911987 c 2.676077,-0.219565 5.005486,-1.245751 6.88021,-3.030971 2.179585,-2.075514 3.313445,-4.862226 3.164922,-7.778503 -0.283108,-5.559302 -5.043481,-9.873133 -10.895112,-9.873133 -1.141786,0 -2.409202,0.197708 -3.44105,0.536804 -0.668225,0.219602 -2.004901,0.839136 -2.517705,1.166945 -1.31727,0.842039 -2.482913,1.99636 -3.294141,3.262093 -1.534075,2.393534 -1.97657,5.358913 -1.206135,8.082623 0.5565,1.967496 1.63924,3.613814 3.328507,5.061143 1.23906,1.061585 2.613351,1.773398 4.283841,2.218786 1.297896,0.346071 2.450209,0.456479 3.696663,0.354213 z"
   style="fill:#ffffff;stroke-width:0.0518485"
   inkscape:export-filename="/home/am/Imágenes/QGISPeru/90_v2pp.png"
   inkscape:export-xdpi="600"
   inkscape:export-ydpi="600"
   transform="matrix(5.6081046,0,0,5.693371,-36.785597,-42.755015)" /><polygon
   transform="translate(-102.84932,-82.20271)"
   id="polygon31"
   points="264,248 264,226.946 225.617,189 204,189 204,211.34 240.782,248 "
   style="fill:#550000;fill-opacity:1"
   inkscape:export-xdpi="600"
   inkscape:export-ydpi="600" /><g
   aria-label="PE"
   transform="matrix(6.4609777,6.5391937,-6.1805883,6.8358489,-137.58116,-131.33445)"
   id="text121"
   style="font-style:normal;font-weight:normal;font-size:6.88819px;line-height:1.25;font-family:sans-serif;letter-spacing:0px;word-spacing:0px;fill:#ffffff;fill-opacity:1;stroke:#ffffff;stroke-width:0.172204;stroke-opacity:1"
   inkscape:export-filename="/home/am/Imágenes/QGISPeru/90_v2pp.png"
   inkscape:export-xdpi="600"
   inkscape:export-ydpi="600"><path
     d="m 40.399456,-1.5255365 q 0.495284,0 0.760501,0.1757459 0.265216,0.1725506 0.265216,0.56877768 0,0.3994225 -0.268412,0.57836378 -0.268411,0.17574589 -0.766891,0.17574589 h -0.156573 v 0.74132816 h -0.49848 V -1.4680196 q 0.162965,-0.031954 0.345101,-0.044735 0.182137,-0.012782 0.319538,-0.012782 z m 0.03195,0.4249856 q -0.05432,0 -0.108643,0.0032 -0.05113,0.0032 -0.08947,0.00639 v 0.63907602 h 0.156573 q 0.258826,0 0.389837,-0.0702984 0.13101,-0.0702984 0.13101,-0.26202116 0,-0.092666 -0.03515,-0.15337824 -0.03195,-0.0607122 -0.09586,-0.0958614 -0.06071,-0.038345 -0.150183,-0.051126 -0.08947,-0.015977 -0.198114,-0.015977 z"
     style="font-style:normal;font-variant:normal;font-weight:bold;font-stretch:normal;font-size:3.19538px;font-family:Ubuntu;-inkscape-font-specification:'Ubuntu Bold';fill:#ffffff;fill-opacity:1;stroke:#ffffff;stroke-width:0.172204;stroke-opacity:1"
     id="path319" /><path
     d="M 41.79434,0.71442491 V -1.4999734 h 1.495437 v 0.4185948 h -0.996958 v 0.43457164 h 0.88512 v 0.40900864 h -0.88512 v 0.53362845 h 1.070452 v 0.41859478 z"
     style="font-style:normal;font-variant:normal;font-weight:bold;font-stretch:normal;font-size:3.19538px;font-family:Ubuntu;-inkscape-font-specification:'Ubuntu Bold';fill:#ffffff;fill-opacity:1;stroke:#ffffff;stroke-width:0.172204;stroke-opacity:1"
     id="path321" /></g><polygon
   transform="translate(-103.39757,-83.377118)"
   id="polygon3"
   points="216.513,180 198.306,162 176,162 176,183.433 195,202.37 195,180 "
   style="fill:#550000;fill-opacity:1"
   inkscape:export-xdpi="600"
   inkscape:export-ydpi="600" /></svg>
